<svg xmlns="http://www.w3.org/2000/svg" xmlns:xlink="http://www.w3.org/1999/xlink" version="1.1" baseProfile="full" style="user-select: none; position: absolute; left: 0px; top: 0px;" width="1000" height="400"><g><rect width="1000" height="400" x="0" y="0" id="0" style="fill: transparent;"></rect></g><g><defs><clipPath id="zr2323-clip-0"><path d="M 53 53 L 947 53 L 947 347 L 53 347 L 53 53" fill="#000" fill-opacity="1" stroke="none"></path></clipPath></defs><path d="M 54 346.5 L 946 346.5" fill="none" stroke="rgba(158, 158, 158, 0.2)" stroke-width="1" paint-order="fill" stroke-opacity="1" stroke-dasharray="" stroke-linecap="butt" stroke-miterlimit="10"></path><path d="M 54 297.5 L 946 297.5" fill="none" stroke="rgba(158, 158, 158, 0.2)" stroke-width="1" paint-order="fill" stroke-opacity="1" stroke-dasharray="" stroke-linecap="butt" stroke-miterlimit="10"></path><path d="M 54 248.5 L 946 248.5" fill="none" stroke="rgba(158, 158, 158, 0.2)" stroke-width="1" paint-order="fill" stroke-opacity="1" stroke-dasharray="" stroke-linecap="butt" stroke-miterlimit="10"></path><path d="M 54 200.5 L 946 200.5" fill="none" stroke="rgba(158, 158, 158, 0.2)" stroke-width="1" paint-order="fill" stroke-opacity="1" stroke-dasharray="" stroke-linecap="butt" stroke-miterlimit="10"></path><path d="M 54 151.5 L 946 151.5" fill="none" stroke="rgba(158, 158, 158, 0.2)" stroke-width="1" paint-order="fill" stroke-opacity="1" stroke-dasharray="" stroke-linecap="butt" stroke-miterlimit="10"></path><path d="M 54 102.5 L 946 102.5" fill="none" stroke="rgba(158, 158, 158, 0.2)" stroke-width="1" paint-order="fill" stroke-opacity="1" stroke-dasharray="" stroke-linecap="butt" stroke-miterlimit="10"></path><path d="M 54 54.5 L 946 54.5" fill="none" stroke="rgba(158, 158, 158, 0.2)" stroke-width="1" paint-order="fill" stroke-opacity="1" stroke-dasharray="" stroke-linecap="butt" stroke-miterlimit="10"></path><text xml:space="preserve" style="font: sans-serif 12px normal normal normal 12px;" fill="#6E7079" fill-opacity="1" stroke="none" transform="matrix(1,0,0,1,54,39)" dominant-baseline="central" text-anchor="middle" x="0" y="-7.5">Focus On</text><text xml:space="preserve" style="font: sans-serif 12px normal normal normal 12px;" fill="#6E7079" fill-opacity="1" stroke="none" transform="matrix(1,0,0,1,46,346)" dominant-baseline="central" text-anchor="end" x="0" y="0">0</text><text xml:space="preserve" style="font: sans-serif 12px normal normal normal 12px;" fill="#6E7079" fill-opacity="1" stroke="none" transform="matrix(1,0,0,1,46,297.3333)" dominant-baseline="central" text-anchor="end" x="0" y="0">10</text><text xml:space="preserve" style="font: sans-serif 12px normal normal normal 12px;" fill="#6E7079" fill-opacity="1" stroke="none" transform="matrix(1,0,0,1,46,248.6667)" dominant-baseline="central" text-anchor="end" x="0" y="0">20</text><text xml:space="preserve" style="font: sans-serif 12px normal normal normal 12px;" fill="#6E7079" fill-opacity="1" stroke="none" transform="matrix(1,0,0,1,46,200)" dominant-baseline="central" text-anchor="end" x="0" y="0">30</text><text xml:space="preserve" style="font: sans-serif 12px normal normal normal 12px;" fill="#6E7079" fill-opacity="1" stroke="none" transform="matrix(1,0,0,1,46,151.3333)" dominant-baseline="central" text-anchor="end" x="0" y="0">40</text><text xml:space="preserve" style="font: sans-serif 12px normal normal normal 12px;" fill="#6E7079" fill-opacity="1" stroke="none" transform="matrix(1,0,0,1,46,102.6667)" dominant-baseline="central" text-anchor="end" x="0" y="0">50</text><text xml:space="preserve" style="font: sans-serif 12px normal normal normal 12px;" fill="#6E7079" fill-opacity="1" stroke="none" transform="matrix(1,0,0,1,46,54)" dominant-baseline="central" text-anchor="end" x="0" y="0">60</text><text xml:space="preserve" style="font: sans-serif 12px normal normal normal 12px;" fill="#6E7079" fill-opacity="1" stroke="none" transform="matrix(1,0,0,1,70.5185,354)" dominant-baseline="central" text-anchor="middle" x="0" y="7.5">2019/08</text><text xml:space="preserve" style="font: sans-serif 12px normal normal normal 12px;" fill="#6E7079" fill-opacity="1" stroke="none" transform="matrix(1,0,0,1,169.6296,354)" dominant-baseline="central" text-anchor="middle" x="0" y="7.5">2019/11</text><text xml:space="preserve" style="font: sans-serif 12px normal normal normal 12px;" fill="#6E7079" fill-opacity="1" stroke="none" transform="matrix(1,0,0,1,268.7407,354)" dominant-baseline="central" text-anchor="middle" x="0" y="7.5">2020/02</text><text xml:space="preserve" style="font: sans-serif 12px normal normal normal 12px;" fill="#6E7079" fill-opacity="1" stroke="none" transform="matrix(1,0,0,1,367.8519,354)" dominant-baseline="central" text-anchor="middle" x="0" y="7.5">2020/05</text><text xml:space="preserve" style="font: sans-serif 12px normal normal normal 12px;" fill="#6E7079" fill-opacity="1" stroke="none" transform="matrix(1,0,0,1,466.963,354)" dominant-baseline="central" text-anchor="middle" x="0" y="7.5">2020/11</text><text xml:space="preserve" style="font: sans-serif 12px normal normal normal 12px;" fill="#6E7079" fill-opacity="1" stroke="none" transform="matrix(1,0,0,1,566.0741,354)" dominant-baseline="central" text-anchor="middle" x="0" y="7.5">2021/02</text><text xml:space="preserve" style="font: sans-serif 12px normal normal normal 12px;" fill="#6E7079" fill-opacity="1" stroke="none" transform="matrix(1,0,0,1,665.1852,354)" dominant-baseline="central" text-anchor="middle" x="0" y="7.5">2021/05</text><text xml:space="preserve" style="font: sans-serif 12px normal normal normal 12px;" fill="#6E7079" fill-opacity="1" stroke="none" transform="matrix(1,0,0,1,764.2963,354)" dominant-baseline="central" text-anchor="middle" x="0" y="7.5">2021/08</text><text xml:space="preserve" style="font: sans-serif 12px normal normal normal 12px;" fill="#6E7079" fill-opacity="1" stroke="none" transform="matrix(1,0,0,1,863.4074,354)" dominant-baseline="central" text-anchor="middle" x="0" y="7.5">2021/11</text><path d="M 1 0 A 1 1 0 1 1 1 -0.0001" fill="rgba(132, 150, 255, 0.28)" fill-opacity="0.8" stroke="none" transform="matrix(29.5,0,0,29.5,70.5185,346)"></path><path d="M 1 0 A 1 1 0 1 1 1 -0.0001" fill="rgba(132, 150, 255, 0.28)" fill-opacity="0.8" stroke="none" transform="matrix(12.292,0,0,12.292,103.5556,335.3654)"></path><path d="M 1 0 A 1 1 0 1 1 1 -0.0001" fill="rgba(132, 150, 255, 0.28)" fill-opacity="0.8" stroke="none" transform="matrix(12.292,0,0,12.292,136.5926,324.7309)"></path><path d="M 1 0 A 1 1 0 1 1 1 -0.0001" fill="rgba(132, 150, 255, 0.28)" fill-opacity="0.8" stroke="none" transform="matrix(22.125,0,0,22.125,169.6296,314.0963)"></path><path d="M 1 0 A 1 1 0 1 1 1 -0.0001" fill="rgba(132, 150, 255, 0.28)" fill-opacity="0.8" stroke="none" transform="matrix(4.917,0,0,4.917,202.6667,303.4617)"></path><path d="M 1 0 A 1 1 0 1 1 1 -0.0001" fill="rgba(132, 150, 255, 0.28)" fill-opacity="0.8" stroke="none" transform="matrix(2.458,0,0,2.458,235.7037,292.8272)"></path><path d="M 1 0 A 1 1 0 1 1 1 -0.0001" fill="rgba(132, 150, 255, 0.28)" fill-opacity="0.8" stroke="none" transform="matrix(2.458,0,0,2.458,268.7407,282.1926)"></path><path d="M 1 0 A 1 1 0 1 1 1 -0.0001" fill="rgba(132, 150, 255, 0.28)" fill-opacity="0.8" stroke="none" transform="matrix(2.458,0,0,2.458,301.7778,271.558)"></path><path d="M 1 0 A 1 1 0 1 1 1 -0.0001" fill="rgba(132, 150, 255, 0.28)" fill-opacity="0.8" stroke="none" transform="matrix(14.75,0,0,14.75,334.8148,260.9235)"></path><path d="M 1 0 A 1 1 0 1 1 1 -0.0001" fill="rgba(132, 150, 255, 0.28)" fill-opacity="0.8" stroke="none" transform="matrix(4.917,0,0,4.917,367.8519,250.2889)"></path><path d="M 1 0 A 1 1 0 1 1 1 -0.0001" fill="rgba(132, 150, 255, 0.28)" fill-opacity="0.8" stroke="none" transform="matrix(4.917,0,0,4.917,400.8889,239.6543)"></path><path d="M 1 0 A 1 1 0 1 1 1 -0.0001" fill="rgba(132, 150, 255, 0.28)" fill-opacity="0.8" stroke="none" transform="matrix(4.917,0,0,4.917,433.9259,229.0198)"></path><path d="M 1 0 A 1 1 0 1 1 1 -0.0001" fill="rgba(132, 150, 255, 0.28)" fill-opacity="0.8" stroke="none" transform="matrix(2.458,0,0,2.458,466.963,218.3852)"></path><path d="M 1 0 A 1 1 0 1 1 1 -0.0001" fill="rgba(132, 150, 255, 0.28)" fill-opacity="0.8" stroke="none" transform="matrix(17.208,0,0,17.208,500,207.7506)"></path><path d="M 1 0 A 1 1 0 1 1 1 -0.0001" fill="rgba(132, 150, 255, 0.28)" fill-opacity="0.8" stroke="none" transform="matrix(9.833,0,0,9.833,533.037,197.116)"></path><path d="M 1 0 A 1 1 0 1 1 1 -0.0001" fill="rgba(132, 150, 255, 0.28)" fill-opacity="0.8" stroke="none" transform="matrix(7.375,0,0,7.375,566.0741,186.4815)"></path><path d="M 1 0 A 1 1 0 1 1 1 -0.0001" fill="rgba(132, 150, 255, 0.28)" fill-opacity="0.8" stroke="none" transform="matrix(7.375,0,0,7.375,599.1111,175.8469)"></path><path d="M 1 0 A 1 1 0 1 1 1 -0.0001" fill="rgba(132, 150, 255, 0.28)" fill-opacity="0.8" stroke="none" transform="matrix(4.917,0,0,4.917,632.1481,165.2123)"></path><path d="M 1 0 A 1 1 0 1 1 1 -0.0001" fill="rgba(132, 150, 255, 0.28)" fill-opacity="0.8" stroke="none" transform="matrix(14.75,0,0,14.75,665.1852,154.5778)"></path><path d="M 1 0 A 1 1 0 1 1 1 -0.0001" fill="rgba(132, 150, 255, 0.28)" fill-opacity="0.8" stroke="none" transform="matrix(7.375,0,0,7.375,698.2222,143.9432)"></path><path d="M 1 0 A 1 1 0 1 1 1 -0.0001" fill="rgba(132, 150, 255, 0.28)" fill-opacity="0.8" stroke="none" transform="matrix(9.833,0,0,9.833,731.2593,133.3086)"></path><path d="M 1 0 A 1 1 0 1 1 1 -0.0001" fill="rgba(132, 150, 255, 0.28)" fill-opacity="0.8" stroke="none" transform="matrix(4.917,0,0,4.917,764.2963,122.6741)"></path><path d="M 1 0 A 1 1 0 1 1 1 -0.0001" fill="rgba(132, 150, 255, 0.28)" fill-opacity="0.8" stroke="none" transform="matrix(14.75,0,0,14.75,797.3333,112.0395)"></path><path d="M 1 0 A 1 1 0 1 1 1 -0.0001" fill="rgba(132, 150, 255, 0.28)" fill-opacity="0.8" stroke="none" transform="matrix(2.458,0,0,2.458,830.3704,101.4049)"></path><path d="M 1 0 A 1 1 0 1 1 1 -0.0001" fill="rgba(132, 150, 255, 0.28)" fill-opacity="0.8" stroke="none" transform="matrix(2.458,0,0,2.458,863.4074,90.7704)"></path><path d="M 1 0 A 1 1 0 1 1 1 -0.0001" fill="rgba(132, 150, 255, 0.28)" fill-opacity="0.8" stroke="none" transform="matrix(2.458,0,0,2.458,896.4444,80.1358)"></path><path d="M 1 0 A 1 1 0 1 1 1 -0.0001" fill="rgba(132, 150, 255, 0.28)" fill-opacity="0.8" stroke="none" transform="matrix(2.458,0,0,2.458,929.4815,69.5012)"></path><text xml:space="preserve" style="font: sans-serif 12px normal normal normal 12px;" fill="#747474" fill-opacity="0.8" stroke="none" transform="matrix(1,0,0,1,70.5185,346)" dominant-baseline="central" text-anchor="middle" x="0" y="0">Javascript</text><text xml:space="preserve" style="font: sans-serif 12px normal normal normal 12px;" fill="#747474" fill-opacity="0.8" stroke="none" transform="matrix(1,0,0,1,103.5556,335.3654)" dominant-baseline="central" text-anchor="middle" x="0" y="0">BrowserAPI</text><text xml:space="preserve" style="font: sans-serif 12px normal normal normal 12px;" fill="#747474" fill-opacity="0.8" stroke="none" transform="matrix(1,0,0,1,136.5926,324.7309)" dominant-baseline="central" text-anchor="middle" x="0" y="0">Javascript</text><text xml:space="preserve" style="font: sans-serif 12px normal normal normal 12px;" fill="#747474" fill-opacity="0.8" stroke="none" transform="matrix(1,0,0,1,169.6296,314.0963)" dominant-baseline="central" text-anchor="middle" x="0" y="0">React</text><text xml:space="preserve" style="font: sans-serif 12px normal normal normal 12px;" fill="#747474" fill-opacity="0.8" stroke="none" transform="matrix(1,0,0,1,202.6667,303.4617)" dominant-baseline="central" text-anchor="middle" x="0" y="0">Javascript</text><text xml:space="preserve" style="font: sans-serif 12px normal normal normal 12px;" fill="#747474" fill-opacity="0.8" stroke="none" transform="matrix(1,0,0,1,235.7037,292.8272)" dominant-baseline="central" text-anchor="middle" x="0" y="0">Linux</text><text xml:space="preserve" style="font: sans-serif 12px normal normal normal 12px;" fill="#747474" fill-opacity="0.8" stroke="none" transform="matrix(1,0,0,1,268.7407,282.1926)" dominant-baseline="central" text-anchor="middle" x="0" y="0">Github-API</text><text xml:space="preserve" style="font: sans-serif 12px normal normal normal 12px;" fill="#747474" fill-opacity="0.8" stroke="none" transform="matrix(1,0,0,1,301.7778,271.558)" dominant-baseline="central" text-anchor="middle" x="0" y="0">Javascript</text><text xml:space="preserve" style="font: sans-serif 12px normal normal normal 12px;" fill="#747474" fill-opacity="0.8" stroke="none" transform="matrix(1,0,0,1,334.8148,260.9235)" dominant-baseline="central" text-anchor="middle" x="0" y="0">Javascript</text><text xml:space="preserve" style="font: sans-serif 12px normal normal normal 12px;" fill="#747474" fill-opacity="0.8" stroke="none" transform="matrix(1,0,0,1,367.8519,250.2889)" dominant-baseline="central" text-anchor="middle" x="0" y="0">CSS</text><text xml:space="preserve" style="font: sans-serif 12px normal normal normal 12px;" fill="#747474" fill-opacity="0.8" stroke="none" transform="matrix(1,0,0,1,400.8889,239.6543)" dominant-baseline="central" text-anchor="middle" x="0" y="0">CSS</text><text xml:space="preserve" style="font: sans-serif 12px normal normal normal 12px;" fill="#747474" fill-opacity="0.8" stroke="none" transform="matrix(1,0,0,1,433.9259,229.0198)" dominant-baseline="central" text-anchor="middle" x="0" y="0">Ant-Design</text><text xml:space="preserve" style="font: sans-serif 12px normal normal normal 12px;" fill="#747474" fill-opacity="0.8" stroke="none" transform="matrix(1,0,0,1,466.963,218.3852)" dominant-baseline="central" text-anchor="middle" x="0" y="0">Ant-Design</text><text xml:space="preserve" style="font: sans-serif 12px normal normal normal 12px;" fill="#747474" fill-opacity="0.8" stroke="none" transform="matrix(1,0,0,1,500,207.7506)" dominant-baseline="central" text-anchor="middle" x="0" y="0">Wechat</text><text xml:space="preserve" style="font: sans-serif 12px normal normal normal 12px;" fill="#747474" fill-opacity="0.8" stroke="none" transform="matrix(1,0,0,1,533.037,197.116)" dominant-baseline="central" text-anchor="middle" x="0" y="0">React</text><text xml:space="preserve" style="font: sans-serif 12px normal normal normal 12px;" fill="#747474" fill-opacity="0.8" stroke="none" transform="matrix(1,0,0,1,599.1111,175.8469)" dominant-baseline="central" text-anchor="middle" x="0" y="0">Nextjs</text><text xml:space="preserve" style="font: sans-serif 12px normal normal normal 12px;" fill="#747474" fill-opacity="0.8" stroke="none" transform="matrix(1,0,0,1,632.1481,165.2123)" dominant-baseline="central" text-anchor="middle" x="0" y="0">ECharts</text><text xml:space="preserve" style="font: sans-serif 12px normal normal normal 12px;" fill="#747474" fill-opacity="0.8" stroke="none" transform="matrix(1,0,0,1,665.1852,154.5778)" dominant-baseline="central" text-anchor="middle" x="0" y="0">Javascript</text><text xml:space="preserve" style="font: sans-serif 12px normal normal normal 12px;" fill="#747474" fill-opacity="0.8" stroke="none" transform="matrix(1,0,0,1,698.2222,143.9432)" dominant-baseline="central" text-anchor="middle" x="0" y="0">webpack</text><text xml:space="preserve" style="font: sans-serif 12px normal normal normal 12px;" fill="#747474" fill-opacity="0.8" stroke="none" transform="matrix(1,0,0,1,731.2593,133.3086)" dominant-baseline="central" text-anchor="middle" x="0" y="0">nginx</text><text xml:space="preserve" style="font: sans-serif 12px normal normal normal 12px;" fill="#747474" fill-opacity="0.8" stroke="none" transform="matrix(1,0,0,1,764.2963,122.6741)" dominant-baseline="central" text-anchor="middle" x="0" y="0">NestJs</text><text xml:space="preserve" style="font: sans-serif 12px normal normal normal 12px;" fill="#747474" fill-opacity="0.8" stroke="none" transform="matrix(1,0,0,1,797.3333,112.0395)" dominant-baseline="central" text-anchor="middle" x="0" y="0">docker</text><text xml:space="preserve" style="font: sans-serif 12px normal normal normal 12px;" fill="#747474" fill-opacity="0.8" stroke="none" transform="matrix(1,0,0,1,830.3704,101.4049)" dominant-baseline="central" text-anchor="middle" x="0" y="0">CSS</text><text xml:space="preserve" style="font: sans-serif 12px normal normal normal 12px;" fill="#747474" fill-opacity="0.8" stroke="none" transform="matrix(1,0,0,1,863.4074,90.7704)" dominant-baseline="central" text-anchor="middle" x="0" y="0">CSS</text><text xml:space="preserve" style="font: sans-serif 12px normal normal normal 12px;" fill="#747474" fill-opacity="0.8" stroke="none" transform="matrix(1,0,0,1,896.4444,80.1358)" dominant-baseline="central" text-anchor="middle" x="0" y="0">CSS</text><text xml:space="preserve" style="font: sans-serif 12px normal normal normal 12px;" fill="#747474" fill-opacity="0.8" stroke="none" transform="matrix(1,0,0,1,929.4815,69.5012)" dominant-baseline="central" text-anchor="middle" x="0" y="0">Ant-Design</text><g clip-path="url(#zr2323-clip-0)"><path d="M 70.5185 58.8667 C 70.5185 58.8667 79.6144 243.8 103.5556 243.8 C 112.6514 243.8 114.3087 200.704 136.5926 180.5333 C 147.3457 170.8 163.4502 170.8 169.6296 170.8 C 196.4872 170.8 175.809 274.4959 202.6667 316.8 C 208.8461 326.5333 219.1852 321.6667 235.7037 326.5333 C 252.2222 331.4 251.8785 336.2667 268.7408 336.2667 C 284.9156 336.2667 290.4019 336.2667 301.7778 336.2667 C 323.4389 336.2667 317.7418 282.7333 334.8148 282.7333 C 350.7789 282.7333 347.0152 331.4 367.8518 331.4 C 380.0522 331.4 384.3704 326.5333 400.8889 321.6667 C 417.4074 316.8 417.8003 311.9333 433.9259 311.9333 C 450.8373 311.9333 457.077 326.5333 466.963 326.5333 C 490.1141 326.5333 476.8489 281.0653 500 248.6667 C 509.8859 234.8319 522.3675 234.0667 533.037 234.0667 C 555.4046 234.0667 543.3658 280.8007 566.0741 302.2 C 576.4028 311.9333 582.2489 311.9333 599.1111 311.9333 C 615.2859 311.9333 625.2884 311.9333 632.1481 311.9333 C 658.3255 311.9333 648.9691 190.2667 665.1852 190.2667 C 682.0062 190.2667 674.4623 316.8 698.2222 316.8 C 707.4993 316.8 712.9417 277.8667 731.2593 277.8667 C 745.9787 277.8667 750.7208 302.2 764.2963 302.2 C 783.7578 302.2 781.3693 253.5333 797.3333 253.5333 C 814.4063 253.5333 809.3834 285.4257 830.3704 307.0667 C 842.4205 319.4923 846.8889 314.3667 863.4074 321.6667 C 879.9259 328.9667 879.9259 336.2667 896.4445 336.2667 C 912.963 336.2667 929.4815 321.6667 929.4815 321.6667" fill="none" stroke="#5470c6" stroke-width="2" paint-order="fill" stroke-opacity="1" stroke-dasharray="" stroke-linecap="butt" stroke-linejoin="bevel" stroke-miterlimit="10"></path></g></g></svg>