<svg xmlns="http://www.w3.org/2000/svg" xmlns:xlink="http://www.w3.org/1999/xlink" version="1.1" baseProfile="full" style="user-select: none; position: absolute; left: 0px; top: 0px;" width="1000" height="400"><g><rect width="1000" height="400" x="0" y="0" id="0" style="fill: transparent;"></rect></g><g><defs><clipPath id="zr2323-clip-0"><path d="M 53 53 L 947 53 L 947 347 L 53 347 L 53 53" fill="#000" fill-opacity="1" stroke="none"></path></clipPath></defs><path d="M 54 346.5 L 946 346.5" fill="none" stroke="rgba(158, 158, 158, 0.2)" stroke-width="1" paint-order="fill" stroke-opacity="1" stroke-dasharray="" stroke-linecap="butt" stroke-miterlimit="10"></path><path d="M 54 297.5 L 946 297.5" fill="none" stroke="rgba(158, 158, 158, 0.2)" stroke-width="1" paint-order="fill" stroke-opacity="1" stroke-dasharray="" stroke-linecap="butt" stroke-miterlimit="10"></path><path d="M 54 248.5 L 946 248.5" fill="none" stroke="rgba(158, 158, 158, 0.2)" stroke-width="1" paint-order="fill" stroke-opacity="1" stroke-dasharray="" stroke-linecap="butt" stroke-miterlimit="10"></path><path d="M 54 200.5 L 946 200.5" fill="none" stroke="rgba(158, 158, 158, 0.2)" stroke-width="1" paint-order="fill" stroke-opacity="1" stroke-dasharray="" stroke-linecap="butt" stroke-miterlimit="10"></path><path d="M 54 151.5 L 946 151.5" fill="none" stroke="rgba(158, 158, 158, 0.2)" stroke-width="1" paint-order="fill" stroke-opacity="1" stroke-dasharray="" stroke-linecap="butt" stroke-miterlimit="10"></path><path d="M 54 102.5 L 946 102.5" fill="none" stroke="rgba(158, 158, 158, 0.2)" stroke-width="1" paint-order="fill" stroke-opacity="1" stroke-dasharray="" stroke-linecap="butt" stroke-miterlimit="10"></path><path d="M 54 54.5 L 946 54.5" fill="none" stroke="rgba(158, 158, 158, 0.2)" stroke-width="1" paint-order="fill" stroke-opacity="1" stroke-dasharray="" stroke-linecap="butt" stroke-miterlimit="10"></path><text xml:space="preserve" style="font: sans-serif 12px normal normal normal 12px;" fill="#6E7079" fill-opacity="1" stroke="none" transform="matrix(1,0,0,1,54,39)" dominant-baseline="central" text-anchor="middle" x="0" y="-7.5">Focus On</text><text xml:space="preserve" style="font: sans-serif 12px normal normal normal 12px;" fill="#6E7079" fill-opacity="1" stroke="none" transform="matrix(1,0,0,1,46,346)" dominant-baseline="central" text-anchor="end" x="0" y="0">0</text><text xml:space="preserve" style="font: sans-serif 12px normal normal normal 12px;" fill="#6E7079" fill-opacity="1" stroke="none" transform="matrix(1,0,0,1,46,297.3333)" dominant-baseline="central" text-anchor="end" x="0" y="0">10</text><text xml:space="preserve" style="font: sans-serif 12px normal normal normal 12px;" fill="#6E7079" fill-opacity="1" stroke="none" transform="matrix(1,0,0,1,46,248.6667)" dominant-baseline="central" text-anchor="end" x="0" y="0">20</text><text xml:space="preserve" style="font: sans-serif 12px normal normal normal 12px;" fill="#6E7079" fill-opacity="1" stroke="none" transform="matrix(1,0,0,1,46,200)" dominant-baseline="central" text-anchor="end" x="0" y="0">30</text><text xml:space="preserve" style="font: sans-serif 12px normal normal normal 12px;" fill="#6E7079" fill-opacity="1" stroke="none" transform="matrix(1,0,0,1,46,151.3333)" dominant-baseline="central" text-anchor="end" x="0" y="0">40</text><text xml:space="preserve" style="font: sans-serif 12px normal normal normal 12px;" fill="#6E7079" fill-opacity="1" stroke="none" transform="matrix(1,0,0,1,46,102.6667)" dominant-baseline="central" text-anchor="end" x="0" y="0">50</text><text xml:space="preserve" style="font: sans-serif 12px normal normal normal 12px;" fill="#6E7079" fill-opacity="1" stroke="none" transform="matrix(1,0,0,1,46,54)" dominant-baseline="central" text-anchor="end" x="0" y="0">60</text><text xml:space="preserve" style="font: sans-serif 12px normal normal normal 12px;" fill="#6E7079" fill-opacity="1" stroke="none" transform="matrix(1,0,0,1,66.0541,354)" dominant-baseline="central" text-anchor="middle" x="0" y="7.5">2019/08</text><text xml:space="preserve" style="font: sans-serif 12px normal normal normal 12px;" fill="#6E7079" fill-opacity="1" stroke="none" transform="matrix(1,0,0,1,138.3784,354)" dominant-baseline="central" text-anchor="middle" x="0" y="7.5">2019/11</text><text xml:space="preserve" style="font: sans-serif 12px normal normal normal 12px;" fill="#6E7079" fill-opacity="1" stroke="none" transform="matrix(1,0,0,1,210.7027,354)" dominant-baseline="central" text-anchor="middle" x="0" y="7.5">2020/02</text><text xml:space="preserve" style="font: sans-serif 12px normal normal normal 12px;" fill="#6E7079" fill-opacity="1" stroke="none" transform="matrix(1,0,0,1,283.027,354)" dominant-baseline="central" text-anchor="middle" x="0" y="7.5">2020/05</text><text xml:space="preserve" style="font: sans-serif 12px normal normal normal 12px;" fill="#6E7079" fill-opacity="1" stroke="none" transform="matrix(1,0,0,1,355.3514,354)" dominant-baseline="central" text-anchor="middle" x="0" y="7.5">2020/11</text><text xml:space="preserve" style="font: sans-serif 12px normal normal normal 12px;" fill="#6E7079" fill-opacity="1" stroke="none" transform="matrix(1,0,0,1,427.6757,354)" dominant-baseline="central" text-anchor="middle" x="0" y="7.5">2021/02</text><text xml:space="preserve" style="font: sans-serif 12px normal normal normal 12px;" fill="#6E7079" fill-opacity="1" stroke="none" transform="matrix(1,0,0,1,500,354)" dominant-baseline="central" text-anchor="middle" x="0" y="7.5">2021/05</text><text xml:space="preserve" style="font: sans-serif 12px normal normal normal 12px;" fill="#6E7079" fill-opacity="1" stroke="none" transform="matrix(1,0,0,1,572.3243,354)" dominant-baseline="central" text-anchor="middle" x="0" y="7.5">2021/08</text><text xml:space="preserve" style="font: sans-serif 12px normal normal normal 12px;" fill="#6E7079" fill-opacity="1" stroke="none" transform="matrix(1,0,0,1,644.6486,354)" dominant-baseline="central" text-anchor="middle" x="0" y="7.5">2021/11</text><text xml:space="preserve" style="font: sans-serif 12px normal normal normal 12px;" fill="#6E7079" fill-opacity="1" stroke="none" transform="matrix(1,0,0,1,716.973,354)" dominant-baseline="central" text-anchor="middle" x="0" y="7.5">2022/02</text><text xml:space="preserve" style="font: sans-serif 12px normal normal normal 12px;" fill="#6E7079" fill-opacity="1" stroke="none" transform="matrix(1,0,0,1,789.2973,354)" dominant-baseline="central" text-anchor="middle" x="0" y="7.5">2022/07</text><text xml:space="preserve" style="font: sans-serif 12px normal normal normal 12px;" fill="#6E7079" fill-opacity="1" stroke="none" transform="matrix(1,0,0,1,861.6216,354)" dominant-baseline="central" text-anchor="middle" x="0" y="7.5">2022/10</text><text xml:space="preserve" style="font: sans-serif 12px normal normal normal 12px;" fill="#6E7079" fill-opacity="1" stroke="none" transform="matrix(1,0,0,1,933.9459,354)" dominant-baseline="central" text-anchor="middle" x="0" y="7.5">2023/03</text><path d="M 1 0 A 1 1 0 1 1 1 -0.0001" fill="rgba(132, 150, 255, 0.28)" fill-opacity="0.8" stroke="none" transform="matrix(29,0,0,29,66.0541,346)"></path><path d="M 1 0 A 1 1 0 1 1 1 -0.0001" fill="rgba(132, 150, 255, 0.28)" fill-opacity="0.8" stroke="none" transform="matrix(12.083,0,0,12.083,90.1622,338.3712)"></path><path d="M 1 0 A 1 1 0 1 1 1 -0.0001" fill="rgba(132, 150, 255, 0.28)" fill-opacity="0.8" stroke="none" transform="matrix(12.083,0,0,12.083,114.2703,330.7423)"></path><path d="M 1 0 A 1 1 0 1 1 1 -0.0001" fill="rgba(132, 150, 255, 0.28)" fill-opacity="0.8" stroke="none" transform="matrix(21.75,0,0,21.75,138.3784,323.1135)"></path><path d="M 1 0 A 1 1 0 1 1 1 -0.0001" fill="rgba(132, 150, 255, 0.28)" fill-opacity="0.8" stroke="none" transform="matrix(4.833,0,0,4.833,162.4865,315.4847)"></path><path d="M 1 0 A 1 1 0 1 1 1 -0.0001" fill="rgba(132, 150, 255, 0.28)" fill-opacity="0.8" stroke="none" transform="matrix(2.417,0,0,2.417,186.5946,307.8559)"></path><path d="M 1 0 A 1 1 0 1 1 1 -0.0001" fill="rgba(132, 150, 255, 0.28)" fill-opacity="0.8" stroke="none" transform="matrix(2.417,0,0,2.417,210.7027,300.227)"></path><path d="M 1 0 A 1 1 0 1 1 1 -0.0001" fill="rgba(132, 150, 255, 0.28)" fill-opacity="0.8" stroke="none" transform="matrix(2.417,0,0,2.417,234.8108,292.5982)"></path><path d="M 1 0 A 1 1 0 1 1 1 -0.0001" fill="rgba(132, 150, 255, 0.28)" fill-opacity="0.8" stroke="none" transform="matrix(14.5,0,0,14.5,258.9189,284.9694)"></path><path d="M 1 0 A 1 1 0 1 1 1 -0.0001" fill="rgba(132, 150, 255, 0.28)" fill-opacity="0.8" stroke="none" transform="matrix(4.833,0,0,4.833,283.027,277.3405)"></path><path d="M 1 0 A 1 1 0 1 1 1 -0.0001" fill="rgba(132, 150, 255, 0.28)" fill-opacity="0.8" stroke="none" transform="matrix(4.833,0,0,4.833,307.1351,269.7117)"></path><path d="M 1 0 A 1 1 0 1 1 1 -0.0001" fill="rgba(132, 150, 255, 0.28)" fill-opacity="0.8" stroke="none" transform="matrix(4.833,0,0,4.833,331.2432,262.0829)"></path><path d="M 1 0 A 1 1 0 1 1 1 -0.0001" fill="rgba(132, 150, 255, 0.28)" fill-opacity="0.8" stroke="none" transform="matrix(2.417,0,0,2.417,355.3514,254.4541)"></path><path d="M 1 0 A 1 1 0 1 1 1 -0.0001" fill="rgba(132, 150, 255, 0.28)" fill-opacity="0.8" stroke="none" transform="matrix(16.917,0,0,16.917,379.4595,246.8252)"></path><path d="M 1 0 A 1 1 0 1 1 1 -0.0001" fill="rgba(132, 150, 255, 0.28)" fill-opacity="0.8" stroke="none" transform="matrix(9.667,0,0,9.667,403.5676,239.1964)"></path><path d="M 1 0 A 1 1 0 1 1 1 -0.0001" fill="rgba(132, 150, 255, 0.28)" fill-opacity="0.8" stroke="none" transform="matrix(7.25,0,0,7.25,427.6757,231.5676)"></path><path d="M 1 0 A 1 1 0 1 1 1 -0.0001" fill="rgba(132, 150, 255, 0.28)" fill-opacity="0.8" stroke="none" transform="matrix(7.25,0,0,7.25,451.7838,223.9387)"></path><path d="M 1 0 A 1 1 0 1 1 1 -0.0001" fill="rgba(132, 150, 255, 0.28)" fill-opacity="0.8" stroke="none" transform="matrix(4.833,0,0,4.833,475.8919,216.3099)"></path><path d="M 1 0 A 1 1 0 1 1 1 -0.0001" fill="rgba(132, 150, 255, 0.28)" fill-opacity="0.8" stroke="none" transform="matrix(14.5,0,0,14.5,500,208.6811)"></path><path d="M 1 0 A 1 1 0 1 1 1 -0.0001" fill="rgba(132, 150, 255, 0.28)" fill-opacity="0.8" stroke="none" transform="matrix(7.25,0,0,7.25,524.1081,201.0523)"></path><path d="M 1 0 A 1 1 0 1 1 1 -0.0001" fill="rgba(132, 150, 255, 0.28)" fill-opacity="0.8" stroke="none" transform="matrix(9.667,0,0,9.667,548.2162,193.4234)"></path><path d="M 1 0 A 1 1 0 1 1 1 -0.0001" fill="rgba(132, 150, 255, 0.28)" fill-opacity="0.8" stroke="none" transform="matrix(4.833,0,0,4.833,572.3243,185.7946)"></path><path d="M 1 0 A 1 1 0 1 1 1 -0.0001" fill="rgba(132, 150, 255, 0.28)" fill-opacity="0.8" stroke="none" transform="matrix(14.5,0,0,14.5,596.4324,178.1658)"></path><path d="M 1 0 A 1 1 0 1 1 1 -0.0001" fill="rgba(132, 150, 255, 0.28)" fill-opacity="0.8" stroke="none" transform="matrix(2.417,0,0,2.417,620.5405,170.5369)"></path><path d="M 1 0 A 1 1 0 1 1 1 -0.0001" fill="rgba(132, 150, 255, 0.28)" fill-opacity="0.8" stroke="none" transform="matrix(2.417,0,0,2.417,644.6486,162.9081)"></path><path d="M 1 0 A 1 1 0 1 1 1 -0.0001" fill="rgba(132, 150, 255, 0.28)" fill-opacity="0.8" stroke="none" transform="matrix(2.417,0,0,2.417,668.7568,155.2793)"></path><path d="M 1 0 A 1 1 0 1 1 1 -0.0001" fill="rgba(132, 150, 255, 0.28)" fill-opacity="0.8" stroke="none" transform="matrix(4.833,0,0,4.833,692.8649,147.6505)"></path><path d="M 1 0 A 1 1 0 1 1 1 -0.0001" fill="rgba(132, 150, 255, 0.28)" fill-opacity="0.8" stroke="none" transform="matrix(7.25,0,0,7.25,716.973,140.0216)"></path><path d="M 1 0 A 1 1 0 1 1 1 -0.0001" fill="rgba(132, 150, 255, 0.28)" fill-opacity="0.8" stroke="none" transform="matrix(4.833,0,0,4.833,741.0811,132.3928)"></path><path d="M 1 0 A 1 1 0 1 1 1 -0.0001" fill="rgba(132, 150, 255, 0.28)" fill-opacity="0.8" stroke="none" transform="matrix(2.417,0,0,2.417,765.1892,124.764)"></path><path d="M 1 0 A 1 1 0 1 1 1 -0.0001" fill="rgba(132, 150, 255, 0.28)" fill-opacity="0.8" stroke="none" transform="matrix(2.417,0,0,2.417,789.2973,117.1351)"></path><path d="M 1 0 A 1 1 0 1 1 1 -0.0001" fill="rgba(132, 150, 255, 0.28)" fill-opacity="0.8" stroke="none" transform="matrix(2.417,0,0,2.417,813.4054,109.5063)"></path><path d="M 1 0 A 1 1 0 1 1 1 -0.0001" fill="rgba(132, 150, 255, 0.28)" fill-opacity="0.8" stroke="none" transform="matrix(4.833,0,0,4.833,837.5135,101.8775)"></path><path d="M 1 0 A 1 1 0 1 1 1 -0.0001" fill="rgba(132, 150, 255, 0.28)" fill-opacity="0.8" stroke="none" transform="matrix(2.417,0,0,2.417,861.6216,94.2486)"></path><path d="M 1 0 A 1 1 0 1 1 1 -0.0001" fill="rgba(132, 150, 255, 0.28)" fill-opacity="0.8" stroke="none" transform="matrix(2.417,0,0,2.417,885.7297,86.6198)"></path><path d="M 1 0 A 1 1 0 1 1 1 -0.0001" fill="rgba(132, 150, 255, 0.28)" fill-opacity="0.8" stroke="none" transform="matrix(2.417,0,0,2.417,909.8378,78.991)"></path><path d="M 1 0 A 1 1 0 1 1 1 -0.0001" fill="rgba(132, 150, 255, 0.28)" fill-opacity="0.8" stroke="none" transform="matrix(2.417,0,0,2.417,933.9459,71.3622)"></path><text xml:space="preserve" style="font: sans-serif 12px normal normal normal 12px;" fill="#747474" fill-opacity="0.8" stroke="none" transform="matrix(1,0,0,1,66.0541,346)" dominant-baseline="central" text-anchor="middle" x="0" y="0">Javascript</text><text xml:space="preserve" style="font: sans-serif 12px normal normal normal 12px;" fill="#747474" fill-opacity="0.8" stroke="none" transform="matrix(1,0,0,1,90.1622,338.3712)" dominant-baseline="central" text-anchor="middle" x="0" y="0">BrowserAPI</text><text xml:space="preserve" style="font: sans-serif 12px normal normal normal 12px;" fill="#747474" fill-opacity="0.8" stroke="none" transform="matrix(1,0,0,1,114.2703,330.7423)" dominant-baseline="central" text-anchor="middle" x="0" y="0">Javascript</text><text xml:space="preserve" style="font: sans-serif 12px normal normal normal 12px;" fill="#747474" fill-opacity="0.8" stroke="none" transform="matrix(1,0,0,1,138.3784,323.1135)" dominant-baseline="central" text-anchor="middle" x="0" y="0">React</text><text xml:space="preserve" style="font: sans-serif 12px normal normal normal 12px;" fill="#747474" fill-opacity="0.8" stroke="none" transform="matrix(1,0,0,1,162.4865,315.4847)" dominant-baseline="central" text-anchor="middle" x="0" y="0">Javascript</text><text xml:space="preserve" style="font: sans-serif 12px normal normal normal 12px;" fill="#747474" fill-opacity="0.8" stroke="none" transform="matrix(1,0,0,1,186.5946,307.8559)" dominant-baseline="central" text-anchor="middle" x="0" y="0">Linux</text><text xml:space="preserve" style="font: sans-serif 12px normal normal normal 12px;" fill="#747474" fill-opacity="0.8" stroke="none" transform="matrix(1,0,0,1,210.7027,300.227)" dominant-baseline="central" text-anchor="middle" x="0" y="0">Github-API</text><text xml:space="preserve" style="font: sans-serif 12px normal normal normal 12px;" fill="#747474" fill-opacity="0.8" stroke="none" transform="matrix(1,0,0,1,234.8108,292.5982)" dominant-baseline="central" text-anchor="middle" x="0" y="0">Javascript</text><text xml:space="preserve" style="font: sans-serif 12px normal normal normal 12px;" fill="#747474" fill-opacity="0.8" stroke="none" transform="matrix(1,0,0,1,258.9189,284.9694)" dominant-baseline="central" text-anchor="middle" x="0" y="0">Javascript</text><text xml:space="preserve" style="font: sans-serif 12px normal normal normal 12px;" fill="#747474" fill-opacity="0.8" stroke="none" transform="matrix(1,0,0,1,283.027,277.3405)" dominant-baseline="central" text-anchor="middle" x="0" y="0">CSS</text><text xml:space="preserve" style="font: sans-serif 12px normal normal normal 12px;" fill="#747474" fill-opacity="0.8" stroke="none" transform="matrix(1,0,0,1,307.1351,269.7117)" dominant-baseline="central" text-anchor="middle" x="0" y="0">CSS</text><text xml:space="preserve" style="font: sans-serif 12px normal normal normal 12px;" fill="#747474" fill-opacity="0.8" stroke="none" transform="matrix(1,0,0,1,331.2432,262.0829)" dominant-baseline="central" text-anchor="middle" x="0" y="0">Ant-Design</text><text xml:space="preserve" style="font: sans-serif 12px normal normal normal 12px;" fill="#747474" fill-opacity="0.8" stroke="none" transform="matrix(1,0,0,1,355.3514,254.4541)" dominant-baseline="central" text-anchor="middle" x="0" y="0">Ant-Design</text><text xml:space="preserve" style="font: sans-serif 12px normal normal normal 12px;" fill="#747474" fill-opacity="0.8" stroke="none" transform="matrix(1,0,0,1,379.4595,246.8252)" dominant-baseline="central" text-anchor="middle" x="0" y="0">Wechat</text><text xml:space="preserve" style="font: sans-serif 12px normal normal normal 12px;" fill="#747474" fill-opacity="0.8" stroke="none" transform="matrix(1,0,0,1,403.5676,239.1964)" dominant-baseline="central" text-anchor="middle" x="0" y="0">React</text><text xml:space="preserve" style="font: sans-serif 12px normal normal normal 12px;" fill="#747474" fill-opacity="0.8" stroke="none" transform="matrix(1,0,0,1,451.7838,223.9387)" dominant-baseline="central" text-anchor="middle" x="0" y="0">Nextjs</text><text xml:space="preserve" style="font: sans-serif 12px normal normal normal 12px;" fill="#747474" fill-opacity="0.8" stroke="none" transform="matrix(1,0,0,1,475.8919,216.3099)" dominant-baseline="central" text-anchor="middle" x="0" y="0">ECharts</text><text xml:space="preserve" style="font: sans-serif 12px normal normal normal 12px;" fill="#747474" fill-opacity="0.8" stroke="none" transform="matrix(1,0,0,1,500,208.6811)" dominant-baseline="central" text-anchor="middle" x="0" y="0">Javascript</text><text xml:space="preserve" style="font: sans-serif 12px normal normal normal 12px;" fill="#747474" fill-opacity="0.8" stroke="none" transform="matrix(1,0,0,1,524.1081,201.0523)" dominant-baseline="central" text-anchor="middle" x="0" y="0">webpack</text><text xml:space="preserve" style="font: sans-serif 12px normal normal normal 12px;" fill="#747474" fill-opacity="0.8" stroke="none" transform="matrix(1,0,0,1,548.2162,193.4234)" dominant-baseline="central" text-anchor="middle" x="0" y="0">nginx</text><text xml:space="preserve" style="font: sans-serif 12px normal normal normal 12px;" fill="#747474" fill-opacity="0.8" stroke="none" transform="matrix(1,0,0,1,572.3243,185.7946)" dominant-baseline="central" text-anchor="middle" x="0" y="0">NestJs</text><text xml:space="preserve" style="font: sans-serif 12px normal normal normal 12px;" fill="#747474" fill-opacity="0.8" stroke="none" transform="matrix(1,0,0,1,596.4324,178.1658)" dominant-baseline="central" text-anchor="middle" x="0" y="0">docker</text><text xml:space="preserve" style="font: sans-serif 12px normal normal normal 12px;" fill="#747474" fill-opacity="0.8" stroke="none" transform="matrix(1,0,0,1,620.5405,170.5369)" dominant-baseline="central" text-anchor="middle" x="0" y="0">CSS</text><text xml:space="preserve" style="font: sans-serif 12px normal normal normal 12px;" fill="#747474" fill-opacity="0.8" stroke="none" transform="matrix(1,0,0,1,644.6486,162.9081)" dominant-baseline="central" text-anchor="middle" x="0" y="0">CSS</text><text xml:space="preserve" style="font: sans-serif 12px normal normal normal 12px;" fill="#747474" fill-opacity="0.8" stroke="none" transform="matrix(1,0,0,1,668.7568,155.2793)" dominant-baseline="central" text-anchor="middle" x="0" y="0">CSS</text><text xml:space="preserve" style="font: sans-serif 12px normal normal normal 12px;" fill="#747474" fill-opacity="0.8" stroke="none" transform="matrix(1,0,0,1,692.8649,147.6505)" dominant-baseline="central" text-anchor="middle" x="0" y="0">Javascript</text><text xml:space="preserve" style="font: sans-serif 12px normal normal normal 12px;" fill="#747474" fill-opacity="0.8" stroke="none" transform="matrix(1,0,0,1,716.973,140.0216)" dominant-baseline="central" text-anchor="middle" x="0" y="0">Ant-Design</text><text xml:space="preserve" style="font: sans-serif 12px normal normal normal 12px;" fill="#747474" fill-opacity="0.8" stroke="none" transform="matrix(1,0,0,1,741.0811,132.3928)" dominant-baseline="central" text-anchor="middle" x="0" y="0">Ant-Design</text><text xml:space="preserve" style="font: sans-serif 12px normal normal normal 12px;" fill="#747474" fill-opacity="0.8" stroke="none" transform="matrix(1,0,0,1,765.1892,124.764)" dominant-baseline="central" text-anchor="middle" x="0" y="0">Javascript</text><text xml:space="preserve" style="font: sans-serif 12px normal normal normal 12px;" fill="#747474" fill-opacity="0.8" stroke="none" transform="matrix(1,0,0,1,789.2973,117.1351)" dominant-baseline="central" text-anchor="middle" x="0" y="0">Algorithm</text><text xml:space="preserve" style="font: sans-serif 12px normal normal normal 12px;" fill="#747474" fill-opacity="0.8" stroke="none" transform="matrix(1,0,0,1,813.4054,109.5063)" dominant-baseline="central" text-anchor="middle" x="0" y="0">Linux</text><text xml:space="preserve" style="font: sans-serif 12px normal normal normal 12px;" fill="#747474" fill-opacity="0.8" stroke="none" transform="matrix(1,0,0,1,837.5135,101.8775)" dominant-baseline="central" text-anchor="middle" x="0" y="0">React-Hooks</text><text xml:space="preserve" style="font: sans-serif 12px normal normal normal 12px;" fill="#747474" fill-opacity="0.8" stroke="none" transform="matrix(1,0,0,1,861.6216,94.2486)" dominant-baseline="central" text-anchor="middle" x="0" y="0">wordpress</text><text xml:space="preserve" style="font: sans-serif 12px normal normal normal 12px;" fill="#747474" fill-opacity="0.8" stroke="none" transform="matrix(1,0,0,1,885.7297,86.6198)" dominant-baseline="central" text-anchor="middle" x="0" y="0">Git</text><text xml:space="preserve" style="font: sans-serif 12px normal normal normal 12px;" fill="#747474" fill-opacity="0.8" stroke="none" transform="matrix(1,0,0,1,909.8378,78.991)" dominant-baseline="central" text-anchor="middle" x="0" y="0">MacOS</text><text xml:space="preserve" style="font: sans-serif 12px normal normal normal 12px;" fill="#747474" fill-opacity="0.8" stroke="none" transform="matrix(1,0,0,1,933.9459,71.3622)" dominant-baseline="central" text-anchor="middle" x="0" y="0">Html</text><g clip-path="url(#zr2323-clip-0)"><path d="M 66.0541 63.7333 C 66.0541 63.7333 72.5992 243.8 90.1622 243.8 C 96.7073 243.8 96.8512 205.8802 114.2703 180.5333 C 120.9593 170.8 134.7757 170.8 138.3784 170.8 C 158.8838 170.8 141.9811 261.4009 162.4865 316.8 C 166.0892 326.5333 174.5405 321.6667 186.5946 326.5333 C 198.6486 331.4 198.1938 336.2667 210.7027 336.2667 C 222.3019 336.2667 227.7931 336.2667 234.8108 336.2667 C 251.9012 336.2667 246.3955 282.7333 258.9189 282.7333 C 270.5036 282.7333 266.7235 331.4 283.027 331.4 C 290.8316 331.4 295.0811 326.5333 307.1351 321.6667 C 319.1892 316.8 319.6754 311.9333 331.2433 311.9333 C 343.7835 311.9333 349.1573 326.5333 355.3513 326.5333 C 373.2654 326.5333 360.9393 264.7963 379.4595 248.6667 C 385.0474 243.8 396.8125 243.8 403.5676 243.8 C 420.9206 243.8 410.5959 278.5468 427.6757 302.2 C 434.704 311.9333 439.2749 311.9333 451.7838 311.9333 C 463.383 311.9333 471.9686 311.9333 475.8919 311.9333 C 496.0767 311.9333 488.1737 190.2667 500 190.2667 C 512.2818 190.2667 506.3228 316.8 524.1081 316.8 C 530.4309 316.8 535.02 277.8667 548.2162 277.8667 C 559.1281 277.8667 562.4207 307.0667 572.3243 307.0667 C 586.5289 307.0667 584.3784 258.4 596.4324 258.4 C 608.4865 258.4 604.669 286.2409 620.5405 307.0667 C 628.777 317.8742 632.5946 314.3667 644.6486 321.6667 C 656.7027 328.9667 657.2735 336.2667 668.7568 336.2667 C 681.3816 336.2667 679.4246 322.9315 692.8649 316.8 C 703.5327 311.9333 705.2535 315.482 716.973 311.9333 C 729.3616 308.182 731.2669 302.2 741.0811 302.2 C 755.375 302.2 750.8953 319.858 765.1892 331.4 C 775.0034 339.3247 776.9087 341.1333 789.2973 341.1333 C 801.0167 341.1333 801.231 336.2667 813.4054 336.2667 C 825.3391 336.2667 825.5798 336.2667 837.5135 336.2667 C 849.6879 336.2667 849.4472 341.1333 861.6216 341.1333 C 873.5553 341.1333 873.6757 341.1333 885.7297 341.1333 C 897.7838 341.1333 897.9041 341.1333 909.8378 341.1333 C 922.0122 341.1333 933.9459 336.2667 933.9459 336.2667" fill="none" stroke="#5470c6" stroke-width="2" paint-order="fill" stroke-opacity="1" stroke-dasharray="" stroke-linecap="butt" stroke-linejoin="bevel" stroke-miterlimit="10"></path></g></g></svg>