<svg xmlns="http://www.w3.org/2000/svg" xmlns:xlink="http://www.w3.org/1999/xlink" version="1.1" baseProfile="full" style="user-select: none; position: absolute; left: 0px; top: 0px;" width="1000" height="400"><g><rect width="1000" height="400" x="0" y="0" id="0" style="fill: transparent;"></rect></g><g><defs><clipPath id="zr2323-clip-0"><path d="M 53 53 L 947 53 L 947 347 L 53 347 L 53 53" fill="#000" fill-opacity="1" stroke="none"></path></clipPath></defs><path d="M 54 346.5 L 946 346.5" fill="none" stroke="rgba(158, 158, 158, 0.2)" stroke-width="1" paint-order="fill" stroke-opacity="1" stroke-dasharray="" stroke-linecap="butt" stroke-miterlimit="10"></path><path d="M 54 297.5 L 946 297.5" fill="none" stroke="rgba(158, 158, 158, 0.2)" stroke-width="1" paint-order="fill" stroke-opacity="1" stroke-dasharray="" stroke-linecap="butt" stroke-miterlimit="10"></path><path d="M 54 248.5 L 946 248.5" fill="none" stroke="rgba(158, 158, 158, 0.2)" stroke-width="1" paint-order="fill" stroke-opacity="1" stroke-dasharray="" stroke-linecap="butt" stroke-miterlimit="10"></path><path d="M 54 200.5 L 946 200.5" fill="none" stroke="rgba(158, 158, 158, 0.2)" stroke-width="1" paint-order="fill" stroke-opacity="1" stroke-dasharray="" stroke-linecap="butt" stroke-miterlimit="10"></path><path d="M 54 151.5 L 946 151.5" fill="none" stroke="rgba(158, 158, 158, 0.2)" stroke-width="1" paint-order="fill" stroke-opacity="1" stroke-dasharray="" stroke-linecap="butt" stroke-miterlimit="10"></path><path d="M 54 102.5 L 946 102.5" fill="none" stroke="rgba(158, 158, 158, 0.2)" stroke-width="1" paint-order="fill" stroke-opacity="1" stroke-dasharray="" stroke-linecap="butt" stroke-miterlimit="10"></path><path d="M 54 54.5 L 946 54.5" fill="none" stroke="rgba(158, 158, 158, 0.2)" stroke-width="1" paint-order="fill" stroke-opacity="1" stroke-dasharray="" stroke-linecap="butt" stroke-miterlimit="10"></path><text xml:space="preserve" style="font: sans-serif 12px normal normal normal 12px;" fill="#6E7079" fill-opacity="1" stroke="none" transform="matrix(1,0,0,1,54,39)" dominant-baseline="central" text-anchor="middle" x="0" y="-7.5">Focus On</text><text xml:space="preserve" style="font: sans-serif 12px normal normal normal 12px;" fill="#6E7079" fill-opacity="1" stroke="none" transform="matrix(1,0,0,1,46,346)" dominant-baseline="central" text-anchor="end" x="0" y="0">0</text><text xml:space="preserve" style="font: sans-serif 12px normal normal normal 12px;" fill="#6E7079" fill-opacity="1" stroke="none" transform="matrix(1,0,0,1,46,297.3333)" dominant-baseline="central" text-anchor="end" x="0" y="0">10</text><text xml:space="preserve" style="font: sans-serif 12px normal normal normal 12px;" fill="#6E7079" fill-opacity="1" stroke="none" transform="matrix(1,0,0,1,46,248.6667)" dominant-baseline="central" text-anchor="end" x="0" y="0">20</text><text xml:space="preserve" style="font: sans-serif 12px normal normal normal 12px;" fill="#6E7079" fill-opacity="1" stroke="none" transform="matrix(1,0,0,1,46,200)" dominant-baseline="central" text-anchor="end" x="0" y="0">30</text><text xml:space="preserve" style="font: sans-serif 12px normal normal normal 12px;" fill="#6E7079" fill-opacity="1" stroke="none" transform="matrix(1,0,0,1,46,151.3333)" dominant-baseline="central" text-anchor="end" x="0" y="0">40</text><text xml:space="preserve" style="font: sans-serif 12px normal normal normal 12px;" fill="#6E7079" fill-opacity="1" stroke="none" transform="matrix(1,0,0,1,46,102.6667)" dominant-baseline="central" text-anchor="end" x="0" y="0">50</text><text xml:space="preserve" style="font: sans-serif 12px normal normal normal 12px;" fill="#6E7079" fill-opacity="1" stroke="none" transform="matrix(1,0,0,1,46,54)" dominant-baseline="central" text-anchor="end" x="0" y="0">60</text><text xml:space="preserve" style="font: sans-serif 12px normal normal normal 12px;" fill="#6E7079" fill-opacity="1" stroke="none" transform="matrix(1,0,0,1,71.1538,354)" dominant-baseline="central" text-anchor="middle" x="0" y="7.5">2019/08</text><text xml:space="preserve" style="font: sans-serif 12px normal normal normal 12px;" fill="#6E7079" fill-opacity="1" stroke="none" transform="matrix(1,0,0,1,139.7692,354)" dominant-baseline="central" text-anchor="middle" x="0" y="7.5">2019/10</text><text xml:space="preserve" style="font: sans-serif 12px normal normal normal 12px;" fill="#6E7079" fill-opacity="1" stroke="none" transform="matrix(1,0,0,1,208.3846,354)" dominant-baseline="central" text-anchor="middle" x="0" y="7.5">2019/12</text><text xml:space="preserve" style="font: sans-serif 12px normal normal normal 12px;" fill="#6E7079" fill-opacity="1" stroke="none" transform="matrix(1,0,0,1,277,354)" dominant-baseline="central" text-anchor="middle" x="0" y="7.5">2020/02</text><text xml:space="preserve" style="font: sans-serif 12px normal normal normal 12px;" fill="#6E7079" fill-opacity="1" stroke="none" transform="matrix(1,0,0,1,345.6154,354)" dominant-baseline="central" text-anchor="middle" x="0" y="7.5">2020/04</text><text xml:space="preserve" style="font: sans-serif 12px normal normal normal 12px;" fill="#6E7079" fill-opacity="1" stroke="none" transform="matrix(1,0,0,1,414.2308,354)" dominant-baseline="central" text-anchor="middle" x="0" y="7.5">2020/06</text><text xml:space="preserve" style="font: sans-serif 12px normal normal normal 12px;" fill="#6E7079" fill-opacity="1" stroke="none" transform="matrix(1,0,0,1,482.8462,354)" dominant-baseline="central" text-anchor="middle" x="0" y="7.5">2020/11</text><text xml:space="preserve" style="font: sans-serif 12px normal normal normal 12px;" fill="#6E7079" fill-opacity="1" stroke="none" transform="matrix(1,0,0,1,551.4615,354)" dominant-baseline="central" text-anchor="middle" x="0" y="7.5">2021/01</text><text xml:space="preserve" style="font: sans-serif 12px normal normal normal 12px;" fill="#6E7079" fill-opacity="1" stroke="none" transform="matrix(1,0,0,1,620.0769,354)" dominant-baseline="central" text-anchor="middle" x="0" y="7.5">2021/03</text><text xml:space="preserve" style="font: sans-serif 12px normal normal normal 12px;" fill="#6E7079" fill-opacity="1" stroke="none" transform="matrix(1,0,0,1,688.6923,354)" dominant-baseline="central" text-anchor="middle" x="0" y="7.5">2021/05</text><text xml:space="preserve" style="font: sans-serif 12px normal normal normal 12px;" fill="#6E7079" fill-opacity="1" stroke="none" transform="matrix(1,0,0,1,757.3077,354)" dominant-baseline="central" text-anchor="middle" x="0" y="7.5">2021/07</text><text xml:space="preserve" style="font: sans-serif 12px normal normal normal 12px;" fill="#6E7079" fill-opacity="1" stroke="none" transform="matrix(1,0,0,1,825.9231,354)" dominant-baseline="central" text-anchor="middle" x="0" y="7.5">2021/09</text><text xml:space="preserve" style="font: sans-serif 12px normal normal normal 12px;" fill="#6E7079" fill-opacity="1" stroke="none" transform="matrix(1,0,0,1,894.5385,354)" dominant-baseline="central" text-anchor="middle" x="0" y="7.5">2021/11</text><path d="M 1 0 A 1 1 0 1 1 1 -0.0001" fill="rgba(132, 150, 255, 0.28)" fill-opacity="0.8" stroke="none" transform="matrix(29.5,0,0,29.5,71.1538,346)"></path><path d="M 1 0 A 1 1 0 1 1 1 -0.0001" fill="rgba(132, 150, 255, 0.28)" fill-opacity="0.8" stroke="none" transform="matrix(12.292,0,0,12.292,105.4615,334.9564)"></path><path d="M 1 0 A 1 1 0 1 1 1 -0.0001" fill="rgba(132, 150, 255, 0.28)" fill-opacity="0.8" stroke="none" transform="matrix(12.292,0,0,12.292,139.7692,323.9128)"></path><path d="M 1 0 A 1 1 0 1 1 1 -0.0001" fill="rgba(132, 150, 255, 0.28)" fill-opacity="0.8" stroke="none" transform="matrix(22.125,0,0,22.125,174.0769,312.8692)"></path><path d="M 1 0 A 1 1 0 1 1 1 -0.0001" fill="rgba(132, 150, 255, 0.28)" fill-opacity="0.8" stroke="none" transform="matrix(4.917,0,0,4.917,208.3846,301.8256)"></path><path d="M 1 0 A 1 1 0 1 1 1 -0.0001" fill="rgba(132, 150, 255, 0.28)" fill-opacity="0.8" stroke="none" transform="matrix(2.458,0,0,2.458,242.6923,290.7821)"></path><path d="M 1 0 A 1 1 0 1 1 1 -0.0001" fill="rgba(132, 150, 255, 0.28)" fill-opacity="0.8" stroke="none" transform="matrix(2.458,0,0,2.458,277,279.7385)"></path><path d="M 1 0 A 1 1 0 1 1 1 -0.0001" fill="rgba(132, 150, 255, 0.28)" fill-opacity="0.8" stroke="none" transform="matrix(2.458,0,0,2.458,311.3077,268.6949)"></path><path d="M 1 0 A 1 1 0 1 1 1 -0.0001" fill="rgba(132, 150, 255, 0.28)" fill-opacity="0.8" stroke="none" transform="matrix(14.75,0,0,14.75,345.6154,257.6513)"></path><path d="M 1 0 A 1 1 0 1 1 1 -0.0001" fill="rgba(132, 150, 255, 0.28)" fill-opacity="0.8" stroke="none" transform="matrix(4.917,0,0,4.917,379.9231,246.6077)"></path><path d="M 1 0 A 1 1 0 1 1 1 -0.0001" fill="rgba(132, 150, 255, 0.28)" fill-opacity="0.8" stroke="none" transform="matrix(4.917,0,0,4.917,414.2308,235.5641)"></path><path d="M 1 0 A 1 1 0 1 1 1 -0.0001" fill="rgba(132, 150, 255, 0.28)" fill-opacity="0.8" stroke="none" transform="matrix(4.917,0,0,4.917,448.5385,224.5205)"></path><path d="M 1 0 A 1 1 0 1 1 1 -0.0001" fill="rgba(132, 150, 255, 0.28)" fill-opacity="0.8" stroke="none" transform="matrix(2.458,0,0,2.458,482.8462,213.4769)"></path><path d="M 1 0 A 1 1 0 1 1 1 -0.0001" fill="rgba(132, 150, 255, 0.28)" fill-opacity="0.8" stroke="none" transform="matrix(17.208,0,0,17.208,517.1538,202.4333)"></path><path d="M 1 0 A 1 1 0 1 1 1 -0.0001" fill="rgba(132, 150, 255, 0.28)" fill-opacity="0.8" stroke="none" transform="matrix(9.833,0,0,9.833,551.4615,191.3897)"></path><path d="M 1 0 A 1 1 0 1 1 1 -0.0001" fill="rgba(132, 150, 255, 0.28)" fill-opacity="0.8" stroke="none" transform="matrix(7.375,0,0,7.375,585.7692,180.3462)"></path><path d="M 1 0 A 1 1 0 1 1 1 -0.0001" fill="rgba(132, 150, 255, 0.28)" fill-opacity="0.8" stroke="none" transform="matrix(7.375,0,0,7.375,620.0769,169.3026)"></path><path d="M 1 0 A 1 1 0 1 1 1 -0.0001" fill="rgba(132, 150, 255, 0.28)" fill-opacity="0.8" stroke="none" transform="matrix(4.917,0,0,4.917,654.3846,158.259)"></path><path d="M 1 0 A 1 1 0 1 1 1 -0.0001" fill="rgba(132, 150, 255, 0.28)" fill-opacity="0.8" stroke="none" transform="matrix(14.75,0,0,14.75,688.6923,147.2154)"></path><path d="M 1 0 A 1 1 0 1 1 1 -0.0001" fill="rgba(132, 150, 255, 0.28)" fill-opacity="0.8" stroke="none" transform="matrix(7.375,0,0,7.375,723,136.1718)"></path><path d="M 1 0 A 1 1 0 1 1 1 -0.0001" fill="rgba(132, 150, 255, 0.28)" fill-opacity="0.8" stroke="none" transform="matrix(9.833,0,0,9.833,757.3077,125.1282)"></path><path d="M 1 0 A 1 1 0 1 1 1 -0.0001" fill="rgba(132, 150, 255, 0.28)" fill-opacity="0.8" stroke="none" transform="matrix(4.917,0,0,4.917,791.6154,114.0846)"></path><path d="M 1 0 A 1 1 0 1 1 1 -0.0001" fill="rgba(132, 150, 255, 0.28)" fill-opacity="0.8" stroke="none" transform="matrix(14.75,0,0,14.75,825.9231,103.041)"></path><path d="M 1 0 A 1 1 0 1 1 1 -0.0001" fill="rgba(132, 150, 255, 0.28)" fill-opacity="0.8" stroke="none" transform="matrix(2.458,0,0,2.458,860.2308,91.9974)"></path><path d="M 1 0 A 1 1 0 1 1 1 -0.0001" fill="rgba(132, 150, 255, 0.28)" fill-opacity="0.8" stroke="none" transform="matrix(2.458,0,0,2.458,894.5385,80.9538)"></path><path d="M 1 0 A 1 1 0 1 1 1 -0.0001" fill="rgba(132, 150, 255, 0.28)" fill-opacity="0.8" stroke="none" transform="matrix(2.458,0,0,2.458,928.8462,69.9103)"></path><text xml:space="preserve" style="font: sans-serif 12px normal normal normal 12px;" fill="#747474" fill-opacity="0.8" stroke="none" transform="matrix(1,0,0,1,71.1538,346)" dominant-baseline="central" text-anchor="middle" x="0" y="0">Javascript</text><text xml:space="preserve" style="font: sans-serif 12px normal normal normal 12px;" fill="#747474" fill-opacity="0.8" stroke="none" transform="matrix(1,0,0,1,105.4615,334.9564)" dominant-baseline="central" text-anchor="middle" x="0" y="0">BrowserAPI</text><text xml:space="preserve" style="font: sans-serif 12px normal normal normal 12px;" fill="#747474" fill-opacity="0.8" stroke="none" transform="matrix(1,0,0,1,139.7692,323.9128)" dominant-baseline="central" text-anchor="middle" x="0" y="0">Javascript</text><text xml:space="preserve" style="font: sans-serif 12px normal normal normal 12px;" fill="#747474" fill-opacity="0.8" stroke="none" transform="matrix(1,0,0,1,174.0769,312.8692)" dominant-baseline="central" text-anchor="middle" x="0" y="0">React</text><text xml:space="preserve" style="font: sans-serif 12px normal normal normal 12px;" fill="#747474" fill-opacity="0.8" stroke="none" transform="matrix(1,0,0,1,208.3846,301.8256)" dominant-baseline="central" text-anchor="middle" x="0" y="0">Javascript</text><text xml:space="preserve" style="font: sans-serif 12px normal normal normal 12px;" fill="#747474" fill-opacity="0.8" stroke="none" transform="matrix(1,0,0,1,242.6923,290.7821)" dominant-baseline="central" text-anchor="middle" x="0" y="0">Linux</text><text xml:space="preserve" style="font: sans-serif 12px normal normal normal 12px;" fill="#747474" fill-opacity="0.8" stroke="none" transform="matrix(1,0,0,1,277,279.7385)" dominant-baseline="central" text-anchor="middle" x="0" y="0">Github-API</text><text xml:space="preserve" style="font: sans-serif 12px normal normal normal 12px;" fill="#747474" fill-opacity="0.8" stroke="none" transform="matrix(1,0,0,1,311.3077,268.6949)" dominant-baseline="central" text-anchor="middle" x="0" y="0">Javascript</text><text xml:space="preserve" style="font: sans-serif 12px normal normal normal 12px;" fill="#747474" fill-opacity="0.8" stroke="none" transform="matrix(1,0,0,1,345.6154,257.6513)" dominant-baseline="central" text-anchor="middle" x="0" y="0">Javascript</text><text xml:space="preserve" style="font: sans-serif 12px normal normal normal 12px;" fill="#747474" fill-opacity="0.8" stroke="none" transform="matrix(1,0,0,1,379.9231,246.6077)" dominant-baseline="central" text-anchor="middle" x="0" y="0">CSS</text><text xml:space="preserve" style="font: sans-serif 12px normal normal normal 12px;" fill="#747474" fill-opacity="0.8" stroke="none" transform="matrix(1,0,0,1,414.2308,235.5641)" dominant-baseline="central" text-anchor="middle" x="0" y="0">CSS</text><text xml:space="preserve" style="font: sans-serif 12px normal normal normal 12px;" fill="#747474" fill-opacity="0.8" stroke="none" transform="matrix(1,0,0,1,448.5385,224.5205)" dominant-baseline="central" text-anchor="middle" x="0" y="0">Ant-Design</text><text xml:space="preserve" style="font: sans-serif 12px normal normal normal 12px;" fill="#747474" fill-opacity="0.8" stroke="none" transform="matrix(1,0,0,1,482.8462,213.4769)" dominant-baseline="central" text-anchor="middle" x="0" y="0">Ant-Design</text><text xml:space="preserve" style="font: sans-serif 12px normal normal normal 12px;" fill="#747474" fill-opacity="0.8" stroke="none" transform="matrix(1,0,0,1,517.1538,202.4333)" dominant-baseline="central" text-anchor="middle" x="0" y="0">Wechat</text><text xml:space="preserve" style="font: sans-serif 12px normal normal normal 12px;" fill="#747474" fill-opacity="0.8" stroke="none" transform="matrix(1,0,0,1,551.4615,191.3897)" dominant-baseline="central" text-anchor="middle" x="0" y="0">React</text><text xml:space="preserve" style="font: sans-serif 12px normal normal normal 12px;" fill="#747474" fill-opacity="0.8" stroke="none" transform="matrix(1,0,0,1,620.0769,169.3026)" dominant-baseline="central" text-anchor="middle" x="0" y="0">Nextjs</text><text xml:space="preserve" style="font: sans-serif 12px normal normal normal 12px;" fill="#747474" fill-opacity="0.8" stroke="none" transform="matrix(1,0,0,1,654.3846,158.259)" dominant-baseline="central" text-anchor="middle" x="0" y="0">ECharts</text><text xml:space="preserve" style="font: sans-serif 12px normal normal normal 12px;" fill="#747474" fill-opacity="0.8" stroke="none" transform="matrix(1,0,0,1,688.6923,147.2154)" dominant-baseline="central" text-anchor="middle" x="0" y="0">Javascript</text><text xml:space="preserve" style="font: sans-serif 12px normal normal normal 12px;" fill="#747474" fill-opacity="0.8" stroke="none" transform="matrix(1,0,0,1,723,136.1718)" dominant-baseline="central" text-anchor="middle" x="0" y="0">webpack</text><text xml:space="preserve" style="font: sans-serif 12px normal normal normal 12px;" fill="#747474" fill-opacity="0.8" stroke="none" transform="matrix(1,0,0,1,757.3077,125.1282)" dominant-baseline="central" text-anchor="middle" x="0" y="0">nginx</text><text xml:space="preserve" style="font: sans-serif 12px normal normal normal 12px;" fill="#747474" fill-opacity="0.8" stroke="none" transform="matrix(1,0,0,1,791.6154,114.0846)" dominant-baseline="central" text-anchor="middle" x="0" y="0">NestJs</text><text xml:space="preserve" style="font: sans-serif 12px normal normal normal 12px;" fill="#747474" fill-opacity="0.8" stroke="none" transform="matrix(1,0,0,1,825.9231,103.041)" dominant-baseline="central" text-anchor="middle" x="0" y="0">docker</text><text xml:space="preserve" style="font: sans-serif 12px normal normal normal 12px;" fill="#747474" fill-opacity="0.8" stroke="none" transform="matrix(1,0,0,1,860.2308,91.9974)" dominant-baseline="central" text-anchor="middle" x="0" y="0">CSS</text><text xml:space="preserve" style="font: sans-serif 12px normal normal normal 12px;" fill="#747474" fill-opacity="0.8" stroke="none" transform="matrix(1,0,0,1,894.5385,80.9538)" dominant-baseline="central" text-anchor="middle" x="0" y="0">CSS</text><text xml:space="preserve" style="font: sans-serif 12px normal normal normal 12px;" fill="#747474" fill-opacity="0.8" stroke="none" transform="matrix(1,0,0,1,928.8462,69.9103)" dominant-baseline="central" text-anchor="middle" x="0" y="0">CSS</text><g clip-path="url(#zr2323-clip-0)"><path d="M 71.1538 58.8667 C 71.1538 58.8667 81.0532 243.8 105.4615 243.8 C 115.3609 243.8 116.1778 186.3805 139.7692 175.6667 C 150.4855 170.8 167.638 170.8 174.0769 170.8 C 201.9457 170.8 180.6675 275.866 208.3846 316.8 C 214.9752 326.5333 225.5385 321.6667 242.6923 326.5333 C 259.8462 331.4 259.5142 336.2667 277 336.2667 C 293.8219 336.2667 299.2839 336.2667 311.3077 336.2667 C 333.5916 336.2667 327.8988 282.7333 345.6154 282.7333 C 362.2065 282.7333 358.4662 331.4 379.9231 331.4 C 392.7739 331.4 397.0769 326.5333 414.2308 321.6667 C 431.3846 316.8 431.7664 311.9333 448.5385 311.9333 C 466.0741 311.9333 472.3933 326.5333 482.8462 326.5333 C 506.701 326.5333 493.299 280.8136 517.1539 248.6667 C 527.6067 234.5803 540.1982 234.0667 551.4615 234.0667 C 574.5059 234.0667 562.3907 281.3796 585.7692 302.2 C 596.6984 311.9333 602.6765 311.9333 620.0769 311.9333 C 636.9842 311.9333 646.7829 311.9333 654.3846 307.0667 C 681.0906 289.9695 671.8618 190.2667 688.6923 190.2667 C 706.1695 190.2667 698.1837 311.9333 723 311.9333 C 732.4914 311.9333 738.9609 277.8667 757.3077 277.8667 C 773.2686 277.8667 777.4131 302.2 791.6154 302.2 C 811.7208 302.2 809.332 253.5333 825.9231 253.5333 C 843.6397 253.5333 838.6046 285.5925 860.2308 307.0667 C 872.9123 319.6591 877.8677 313.3898 894.5385 321.6667 C 912.1753 330.4231 928.8461 341.1333 928.8461 341.1333" fill="none" stroke="#5470c6" stroke-width="2" paint-order="fill" stroke-opacity="1" stroke-dasharray="" stroke-linecap="butt" stroke-linejoin="bevel" stroke-miterlimit="10"></path></g></g></svg>