<svg xmlns="http://www.w3.org/2000/svg" xmlns:xlink="http://www.w3.org/1999/xlink" version="1.1" baseProfile="full" style="user-select: none; position: absolute; left: 0px; top: 0px;" width="1000" height="400"><g><rect width="1000" height="400" x="0" y="0" id="0" style="fill: transparent;"></rect></g><g><defs><clipPath id="zr2323-clip-0"><path d="M 53 53 L 947 53 L 947 347 L 53 347 L 53 53" fill="#000" fill-opacity="1" stroke="none"></path></clipPath></defs><path d="M 54 346.5 L 946 346.5" fill="none" stroke="rgba(158, 158, 158, 0.2)" stroke-width="1" paint-order="fill" stroke-opacity="1" stroke-dasharray="" stroke-linecap="butt" stroke-miterlimit="10"></path><path d="M 54 297.5 L 946 297.5" fill="none" stroke="rgba(158, 158, 158, 0.2)" stroke-width="1" paint-order="fill" stroke-opacity="1" stroke-dasharray="" stroke-linecap="butt" stroke-miterlimit="10"></path><path d="M 54 248.5 L 946 248.5" fill="none" stroke="rgba(158, 158, 158, 0.2)" stroke-width="1" paint-order="fill" stroke-opacity="1" stroke-dasharray="" stroke-linecap="butt" stroke-miterlimit="10"></path><path d="M 54 200.5 L 946 200.5" fill="none" stroke="rgba(158, 158, 158, 0.2)" stroke-width="1" paint-order="fill" stroke-opacity="1" stroke-dasharray="" stroke-linecap="butt" stroke-miterlimit="10"></path><path d="M 54 151.5 L 946 151.5" fill="none" stroke="rgba(158, 158, 158, 0.2)" stroke-width="1" paint-order="fill" stroke-opacity="1" stroke-dasharray="" stroke-linecap="butt" stroke-miterlimit="10"></path><path d="M 54 102.5 L 946 102.5" fill="none" stroke="rgba(158, 158, 158, 0.2)" stroke-width="1" paint-order="fill" stroke-opacity="1" stroke-dasharray="" stroke-linecap="butt" stroke-miterlimit="10"></path><path d="M 54 54.5 L 946 54.5" fill="none" stroke="rgba(158, 158, 158, 0.2)" stroke-width="1" paint-order="fill" stroke-opacity="1" stroke-dasharray="" stroke-linecap="butt" stroke-miterlimit="10"></path><text xml:space="preserve" style="font: sans-serif 12px normal normal normal 12px;" fill="#6E7079" fill-opacity="1" stroke="none" transform="matrix(1,0,0,1,54,39)" dominant-baseline="central" text-anchor="middle" x="0" y="-7.5">Focus On</text><text xml:space="preserve" style="font: sans-serif 12px normal normal normal 12px;" fill="#6E7079" fill-opacity="1" stroke="none" transform="matrix(1,0,0,1,46,346)" dominant-baseline="central" text-anchor="end" x="0" y="0">0</text><text xml:space="preserve" style="font: sans-serif 12px normal normal normal 12px;" fill="#6E7079" fill-opacity="1" stroke="none" transform="matrix(1,0,0,1,46,297.3333)" dominant-baseline="central" text-anchor="end" x="0" y="0">10</text><text xml:space="preserve" style="font: sans-serif 12px normal normal normal 12px;" fill="#6E7079" fill-opacity="1" stroke="none" transform="matrix(1,0,0,1,46,248.6667)" dominant-baseline="central" text-anchor="end" x="0" y="0">20</text><text xml:space="preserve" style="font: sans-serif 12px normal normal normal 12px;" fill="#6E7079" fill-opacity="1" stroke="none" transform="matrix(1,0,0,1,46,200)" dominant-baseline="central" text-anchor="end" x="0" y="0">30</text><text xml:space="preserve" style="font: sans-serif 12px normal normal normal 12px;" fill="#6E7079" fill-opacity="1" stroke="none" transform="matrix(1,0,0,1,46,151.3333)" dominant-baseline="central" text-anchor="end" x="0" y="0">40</text><text xml:space="preserve" style="font: sans-serif 12px normal normal normal 12px;" fill="#6E7079" fill-opacity="1" stroke="none" transform="matrix(1,0,0,1,46,102.6667)" dominant-baseline="central" text-anchor="end" x="0" y="0">50</text><text xml:space="preserve" style="font: sans-serif 12px normal normal normal 12px;" fill="#6E7079" fill-opacity="1" stroke="none" transform="matrix(1,0,0,1,46,54)" dominant-baseline="central" text-anchor="end" x="0" y="0">60</text><text xml:space="preserve" style="font: sans-serif 12px normal normal normal 12px;" fill="#6E7079" fill-opacity="1" stroke="none" transform="matrix(1,0,0,1,69.9286,354)" dominant-baseline="central" text-anchor="middle" x="0" y="7.5">2019/08</text><text xml:space="preserve" style="font: sans-serif 12px normal normal normal 12px;" fill="#6E7079" fill-opacity="1" stroke="none" transform="matrix(1,0,0,1,165.5,354)" dominant-baseline="central" text-anchor="middle" x="0" y="7.5">2019/11</text><text xml:space="preserve" style="font: sans-serif 12px normal normal normal 12px;" fill="#6E7079" fill-opacity="1" stroke="none" transform="matrix(1,0,0,1,261.0714,354)" dominant-baseline="central" text-anchor="middle" x="0" y="7.5">2020/02</text><text xml:space="preserve" style="font: sans-serif 12px normal normal normal 12px;" fill="#6E7079" fill-opacity="1" stroke="none" transform="matrix(1,0,0,1,356.6429,354)" dominant-baseline="central" text-anchor="middle" x="0" y="7.5">2020/05</text><text xml:space="preserve" style="font: sans-serif 12px normal normal normal 12px;" fill="#6E7079" fill-opacity="1" stroke="none" transform="matrix(1,0,0,1,452.2143,354)" dominant-baseline="central" text-anchor="middle" x="0" y="7.5">2020/11</text><text xml:space="preserve" style="font: sans-serif 12px normal normal normal 12px;" fill="#6E7079" fill-opacity="1" stroke="none" transform="matrix(1,0,0,1,547.7857,354)" dominant-baseline="central" text-anchor="middle" x="0" y="7.5">2021/02</text><text xml:space="preserve" style="font: sans-serif 12px normal normal normal 12px;" fill="#6E7079" fill-opacity="1" stroke="none" transform="matrix(1,0,0,1,643.3571,354)" dominant-baseline="central" text-anchor="middle" x="0" y="7.5">2021/05</text><text xml:space="preserve" style="font: sans-serif 12px normal normal normal 12px;" fill="#6E7079" fill-opacity="1" stroke="none" transform="matrix(1,0,0,1,738.9286,354)" dominant-baseline="central" text-anchor="middle" x="0" y="7.5">2021/08</text><text xml:space="preserve" style="font: sans-serif 12px normal normal normal 12px;" fill="#6E7079" fill-opacity="1" stroke="none" transform="matrix(1,0,0,1,834.5,354)" dominant-baseline="central" text-anchor="middle" x="0" y="7.5">2021/11</text><text xml:space="preserve" style="font: sans-serif 12px normal normal normal 12px;" fill="#6E7079" fill-opacity="1" stroke="none" transform="matrix(1,0,0,1,930.0714,354)" dominant-baseline="central" text-anchor="middle" x="0" y="7.5">2022/02</text><path d="M 1 0 A 1 1 0 1 1 1 -0.0001" fill="rgba(132, 150, 255, 0.28)" fill-opacity="0.8" stroke="none" transform="matrix(29.5,0,0,29.5,69.9286,346)"></path><path d="M 1 0 A 1 1 0 1 1 1 -0.0001" fill="rgba(132, 150, 255, 0.28)" fill-opacity="0.8" stroke="none" transform="matrix(12.292,0,0,12.292,101.7857,335.7452)"></path><path d="M 1 0 A 1 1 0 1 1 1 -0.0001" fill="rgba(132, 150, 255, 0.28)" fill-opacity="0.8" stroke="none" transform="matrix(12.292,0,0,12.292,133.6429,325.4905)"></path><path d="M 1 0 A 1 1 0 1 1 1 -0.0001" fill="rgba(132, 150, 255, 0.28)" fill-opacity="0.8" stroke="none" transform="matrix(22.125,0,0,22.125,165.5,315.2357)"></path><path d="M 1 0 A 1 1 0 1 1 1 -0.0001" fill="rgba(132, 150, 255, 0.28)" fill-opacity="0.8" stroke="none" transform="matrix(4.917,0,0,4.917,197.3571,304.981)"></path><path d="M 1 0 A 1 1 0 1 1 1 -0.0001" fill="rgba(132, 150, 255, 0.28)" fill-opacity="0.8" stroke="none" transform="matrix(2.458,0,0,2.458,229.2143,294.7262)"></path><path d="M 1 0 A 1 1 0 1 1 1 -0.0001" fill="rgba(132, 150, 255, 0.28)" fill-opacity="0.8" stroke="none" transform="matrix(2.458,0,0,2.458,261.0714,284.4714)"></path><path d="M 1 0 A 1 1 0 1 1 1 -0.0001" fill="rgba(132, 150, 255, 0.28)" fill-opacity="0.8" stroke="none" transform="matrix(2.458,0,0,2.458,292.9286,274.2167)"></path><path d="M 1 0 A 1 1 0 1 1 1 -0.0001" fill="rgba(132, 150, 255, 0.28)" fill-opacity="0.8" stroke="none" transform="matrix(14.75,0,0,14.75,324.7857,263.9619)"></path><path d="M 1 0 A 1 1 0 1 1 1 -0.0001" fill="rgba(132, 150, 255, 0.28)" fill-opacity="0.8" stroke="none" transform="matrix(4.917,0,0,4.917,356.6429,253.7071)"></path><path d="M 1 0 A 1 1 0 1 1 1 -0.0001" fill="rgba(132, 150, 255, 0.28)" fill-opacity="0.8" stroke="none" transform="matrix(4.917,0,0,4.917,388.5,243.4524)"></path><path d="M 1 0 A 1 1 0 1 1 1 -0.0001" fill="rgba(132, 150, 255, 0.28)" fill-opacity="0.8" stroke="none" transform="matrix(4.917,0,0,4.917,420.3571,233.1976)"></path><path d="M 1 0 A 1 1 0 1 1 1 -0.0001" fill="rgba(132, 150, 255, 0.28)" fill-opacity="0.8" stroke="none" transform="matrix(2.458,0,0,2.458,452.2143,222.9429)"></path><path d="M 1 0 A 1 1 0 1 1 1 -0.0001" fill="rgba(132, 150, 255, 0.28)" fill-opacity="0.8" stroke="none" transform="matrix(17.208,0,0,17.208,484.0714,212.6881)"></path><path d="M 1 0 A 1 1 0 1 1 1 -0.0001" fill="rgba(132, 150, 255, 0.28)" fill-opacity="0.8" stroke="none" transform="matrix(9.833,0,0,9.833,515.9286,202.4333)"></path><path d="M 1 0 A 1 1 0 1 1 1 -0.0001" fill="rgba(132, 150, 255, 0.28)" fill-opacity="0.8" stroke="none" transform="matrix(7.375,0,0,7.375,547.7857,192.1786)"></path><path d="M 1 0 A 1 1 0 1 1 1 -0.0001" fill="rgba(132, 150, 255, 0.28)" fill-opacity="0.8" stroke="none" transform="matrix(7.375,0,0,7.375,579.6429,181.9238)"></path><path d="M 1 0 A 1 1 0 1 1 1 -0.0001" fill="rgba(132, 150, 255, 0.28)" fill-opacity="0.8" stroke="none" transform="matrix(4.917,0,0,4.917,611.5,171.669)"></path><path d="M 1 0 A 1 1 0 1 1 1 -0.0001" fill="rgba(132, 150, 255, 0.28)" fill-opacity="0.8" stroke="none" transform="matrix(14.75,0,0,14.75,643.3571,161.4143)"></path><path d="M 1 0 A 1 1 0 1 1 1 -0.0001" fill="rgba(132, 150, 255, 0.28)" fill-opacity="0.8" stroke="none" transform="matrix(7.375,0,0,7.375,675.2143,151.1595)"></path><path d="M 1 0 A 1 1 0 1 1 1 -0.0001" fill="rgba(132, 150, 255, 0.28)" fill-opacity="0.8" stroke="none" transform="matrix(9.833,0,0,9.833,707.0714,140.9048)"></path><path d="M 1 0 A 1 1 0 1 1 1 -0.0001" fill="rgba(132, 150, 255, 0.28)" fill-opacity="0.8" stroke="none" transform="matrix(4.917,0,0,4.917,738.9286,130.65)"></path><path d="M 1 0 A 1 1 0 1 1 1 -0.0001" fill="rgba(132, 150, 255, 0.28)" fill-opacity="0.8" stroke="none" transform="matrix(14.75,0,0,14.75,770.7857,120.3952)"></path><path d="M 1 0 A 1 1 0 1 1 1 -0.0001" fill="rgba(132, 150, 255, 0.28)" fill-opacity="0.8" stroke="none" transform="matrix(2.458,0,0,2.458,802.6429,110.1405)"></path><path d="M 1 0 A 1 1 0 1 1 1 -0.0001" fill="rgba(132, 150, 255, 0.28)" fill-opacity="0.8" stroke="none" transform="matrix(2.458,0,0,2.458,834.5,99.8857)"></path><path d="M 1 0 A 1 1 0 1 1 1 -0.0001" fill="rgba(132, 150, 255, 0.28)" fill-opacity="0.8" stroke="none" transform="matrix(2.458,0,0,2.458,866.3571,89.631)"></path><path d="M 1 0 A 1 1 0 1 1 1 -0.0001" fill="rgba(132, 150, 255, 0.28)" fill-opacity="0.8" stroke="none" transform="matrix(4.917,0,0,4.917,898.2143,79.3762)"></path><path d="M 1 0 A 1 1 0 1 1 1 -0.0001" fill="rgba(132, 150, 255, 0.28)" fill-opacity="0.8" stroke="none" transform="matrix(7.375,0,0,7.375,930.0714,69.1214)"></path><text xml:space="preserve" style="font: sans-serif 12px normal normal normal 12px;" fill="#747474" fill-opacity="0.8" stroke="none" transform="matrix(1,0,0,1,69.9286,346)" dominant-baseline="central" text-anchor="middle" x="0" y="0">Javascript</text><text xml:space="preserve" style="font: sans-serif 12px normal normal normal 12px;" fill="#747474" fill-opacity="0.8" stroke="none" transform="matrix(1,0,0,1,101.7857,335.7452)" dominant-baseline="central" text-anchor="middle" x="0" y="0">BrowserAPI</text><text xml:space="preserve" style="font: sans-serif 12px normal normal normal 12px;" fill="#747474" fill-opacity="0.8" stroke="none" transform="matrix(1,0,0,1,133.6429,325.4905)" dominant-baseline="central" text-anchor="middle" x="0" y="0">Javascript</text><text xml:space="preserve" style="font: sans-serif 12px normal normal normal 12px;" fill="#747474" fill-opacity="0.8" stroke="none" transform="matrix(1,0,0,1,165.5,315.2357)" dominant-baseline="central" text-anchor="middle" x="0" y="0">React</text><text xml:space="preserve" style="font: sans-serif 12px normal normal normal 12px;" fill="#747474" fill-opacity="0.8" stroke="none" transform="matrix(1,0,0,1,197.3571,304.981)" dominant-baseline="central" text-anchor="middle" x="0" y="0">Javascript</text><text xml:space="preserve" style="font: sans-serif 12px normal normal normal 12px;" fill="#747474" fill-opacity="0.8" stroke="none" transform="matrix(1,0,0,1,229.2143,294.7262)" dominant-baseline="central" text-anchor="middle" x="0" y="0">Linux</text><text xml:space="preserve" style="font: sans-serif 12px normal normal normal 12px;" fill="#747474" fill-opacity="0.8" stroke="none" transform="matrix(1,0,0,1,261.0714,284.4714)" dominant-baseline="central" text-anchor="middle" x="0" y="0">Github-API</text><text xml:space="preserve" style="font: sans-serif 12px normal normal normal 12px;" fill="#747474" fill-opacity="0.8" stroke="none" transform="matrix(1,0,0,1,292.9286,274.2167)" dominant-baseline="central" text-anchor="middle" x="0" y="0">Javascript</text><text xml:space="preserve" style="font: sans-serif 12px normal normal normal 12px;" fill="#747474" fill-opacity="0.8" stroke="none" transform="matrix(1,0,0,1,324.7857,263.9619)" dominant-baseline="central" text-anchor="middle" x="0" y="0">Javascript</text><text xml:space="preserve" style="font: sans-serif 12px normal normal normal 12px;" fill="#747474" fill-opacity="0.8" stroke="none" transform="matrix(1,0,0,1,356.6429,253.7071)" dominant-baseline="central" text-anchor="middle" x="0" y="0">CSS</text><text xml:space="preserve" style="font: sans-serif 12px normal normal normal 12px;" fill="#747474" fill-opacity="0.8" stroke="none" transform="matrix(1,0,0,1,388.5,243.4524)" dominant-baseline="central" text-anchor="middle" x="0" y="0">CSS</text><text xml:space="preserve" style="font: sans-serif 12px normal normal normal 12px;" fill="#747474" fill-opacity="0.8" stroke="none" transform="matrix(1,0,0,1,420.3571,233.1976)" dominant-baseline="central" text-anchor="middle" x="0" y="0">Ant-Design</text><text xml:space="preserve" style="font: sans-serif 12px normal normal normal 12px;" fill="#747474" fill-opacity="0.8" stroke="none" transform="matrix(1,0,0,1,452.2143,222.9429)" dominant-baseline="central" text-anchor="middle" x="0" y="0">Ant-Design</text><text xml:space="preserve" style="font: sans-serif 12px normal normal normal 12px;" fill="#747474" fill-opacity="0.8" stroke="none" transform="matrix(1,0,0,1,484.0714,212.6881)" dominant-baseline="central" text-anchor="middle" x="0" y="0">Wechat</text><text xml:space="preserve" style="font: sans-serif 12px normal normal normal 12px;" fill="#747474" fill-opacity="0.8" stroke="none" transform="matrix(1,0,0,1,515.9286,202.4333)" dominant-baseline="central" text-anchor="middle" x="0" y="0">React</text><text xml:space="preserve" style="font: sans-serif 12px normal normal normal 12px;" fill="#747474" fill-opacity="0.8" stroke="none" transform="matrix(1,0,0,1,579.6429,181.9238)" dominant-baseline="central" text-anchor="middle" x="0" y="0">Nextjs</text><text xml:space="preserve" style="font: sans-serif 12px normal normal normal 12px;" fill="#747474" fill-opacity="0.8" stroke="none" transform="matrix(1,0,0,1,611.5,171.669)" dominant-baseline="central" text-anchor="middle" x="0" y="0">ECharts</text><text xml:space="preserve" style="font: sans-serif 12px normal normal normal 12px;" fill="#747474" fill-opacity="0.8" stroke="none" transform="matrix(1,0,0,1,643.3571,161.4143)" dominant-baseline="central" text-anchor="middle" x="0" y="0">Javascript</text><text xml:space="preserve" style="font: sans-serif 12px normal normal normal 12px;" fill="#747474" fill-opacity="0.8" stroke="none" transform="matrix(1,0,0,1,675.2143,151.1595)" dominant-baseline="central" text-anchor="middle" x="0" y="0">webpack</text><text xml:space="preserve" style="font: sans-serif 12px normal normal normal 12px;" fill="#747474" fill-opacity="0.8" stroke="none" transform="matrix(1,0,0,1,707.0714,140.9048)" dominant-baseline="central" text-anchor="middle" x="0" y="0">nginx</text><text xml:space="preserve" style="font: sans-serif 12px normal normal normal 12px;" fill="#747474" fill-opacity="0.8" stroke="none" transform="matrix(1,0,0,1,738.9286,130.65)" dominant-baseline="central" text-anchor="middle" x="0" y="0">NestJs</text><text xml:space="preserve" style="font: sans-serif 12px normal normal normal 12px;" fill="#747474" fill-opacity="0.8" stroke="none" transform="matrix(1,0,0,1,770.7857,120.3952)" dominant-baseline="central" text-anchor="middle" x="0" y="0">docker</text><text xml:space="preserve" style="font: sans-serif 12px normal normal normal 12px;" fill="#747474" fill-opacity="0.8" stroke="none" transform="matrix(1,0,0,1,802.6429,110.1405)" dominant-baseline="central" text-anchor="middle" x="0" y="0">CSS</text><text xml:space="preserve" style="font: sans-serif 12px normal normal normal 12px;" fill="#747474" fill-opacity="0.8" stroke="none" transform="matrix(1,0,0,1,834.5,99.8857)" dominant-baseline="central" text-anchor="middle" x="0" y="0">CSS</text><text xml:space="preserve" style="font: sans-serif 12px normal normal normal 12px;" fill="#747474" fill-opacity="0.8" stroke="none" transform="matrix(1,0,0,1,866.3571,89.631)" dominant-baseline="central" text-anchor="middle" x="0" y="0">CSS</text><text xml:space="preserve" style="font: sans-serif 12px normal normal normal 12px;" fill="#747474" fill-opacity="0.8" stroke="none" transform="matrix(1,0,0,1,898.2143,79.3762)" dominant-baseline="central" text-anchor="middle" x="0" y="0">Javascript</text><text xml:space="preserve" style="font: sans-serif 12px normal normal normal 12px;" fill="#747474" fill-opacity="0.8" stroke="none" transform="matrix(1,0,0,1,930.0714,69.1214)" dominant-baseline="central" text-anchor="middle" x="0" y="0">Ant-Design</text><g clip-path="url(#zr2323-clip-0)"><path d="M 69.9286 58.8667 C 69.9286 58.8667 78.6584 243.8 101.7857 243.8 C 110.5155 243.8 111.9752 201.231 133.6429 180.5333 C 143.8323 170.8 159.6931 170.8 165.5 170.8 C 191.5502 170.8 171.3069 273.1355 197.3571 316.8 C 203.1641 326.5333 213.2857 321.6667 229.2143 326.5333 C 245.1429 331.4 244.7875 336.2667 261.0714 336.2667 C 276.6447 336.2667 282.1495 336.2667 292.9286 336.2667 C 314.0066 336.2667 308.3112 282.7333 324.7857 282.7333 C 340.1683 282.7333 336.3863 331.4 356.6429 331.4 C 368.2434 331.4 372.5714 326.5333 388.5 321.6667 C 404.4286 316.8 404.8323 311.9333 420.3571 311.9333 C 436.6894 311.9333 442.8467 326.5333 452.2143 326.5333 C 474.7038 326.5333 461.2501 273.2496 484.0714 248.6667 C 493.1073 238.9333 505.7391 238.9333 515.9286 238.9333 C 537.5962 238.9333 526.1181 281.5024 547.7857 302.2 C 557.9752 311.9333 563.359 311.9333 579.6429 311.9333 C 595.2161 311.9333 605.0615 311.9333 611.5 311.9333 C 636.9186 311.9333 627.7216 190.2667 643.3571 190.2667 C 659.5787 190.2667 652.2217 316.8 675.2143 316.8 C 684.0788 316.8 689.3422 277.8667 707.0714 277.8667 C 721.1993 277.8667 725.3784 302.2 738.9286 302.2 C 757.2356 302.2 755.4252 258.4 770.7857 258.4 C 787.2824 258.4 782.7628 287.3263 802.6429 307.0667 C 814.62 318.9596 818.5714 314.3667 834.5 321.6667 C 850.4286 328.9667 850.9327 336.2667 866.3571 336.2667 C 882.7898 336.2667 881.7816 325.5862 898.2143 316.8 C 913.6387 308.5529 930.0714 302.2 930.0714 302.2" fill="none" stroke="#5470c6" stroke-width="2" paint-order="fill" stroke-opacity="1" stroke-dasharray="" stroke-linecap="butt" stroke-linejoin="bevel" stroke-miterlimit="10"></path></g></g></svg>