<svg xmlns="http://www.w3.org/2000/svg" xmlns:xlink="http://www.w3.org/1999/xlink" version="1.1" baseProfile="full" style="user-select: none; position: absolute; left: 0px; top: 0px;" width="1000" height="400"><g><rect width="1000" height="400" x="0" y="0" id="0" style="fill: transparent;"></rect></g><g><defs><clipPath id="zr2323-clip-0"><path d="M 53 53 L 947 53 L 947 347 L 53 347 L 53 53" fill="#000" fill-opacity="1" stroke="none"></path></clipPath></defs><path d="M 54 346.5 L 946 346.5" fill="none" stroke="rgba(158, 158, 158, 0.2)" stroke-width="1" paint-order="fill" stroke-opacity="1" stroke-dasharray="" stroke-linecap="butt" stroke-miterlimit="10"></path><path d="M 54 297.5 L 946 297.5" fill="none" stroke="rgba(158, 158, 158, 0.2)" stroke-width="1" paint-order="fill" stroke-opacity="1" stroke-dasharray="" stroke-linecap="butt" stroke-miterlimit="10"></path><path d="M 54 248.5 L 946 248.5" fill="none" stroke="rgba(158, 158, 158, 0.2)" stroke-width="1" paint-order="fill" stroke-opacity="1" stroke-dasharray="" stroke-linecap="butt" stroke-miterlimit="10"></path><path d="M 54 200.5 L 946 200.5" fill="none" stroke="rgba(158, 158, 158, 0.2)" stroke-width="1" paint-order="fill" stroke-opacity="1" stroke-dasharray="" stroke-linecap="butt" stroke-miterlimit="10"></path><path d="M 54 151.5 L 946 151.5" fill="none" stroke="rgba(158, 158, 158, 0.2)" stroke-width="1" paint-order="fill" stroke-opacity="1" stroke-dasharray="" stroke-linecap="butt" stroke-miterlimit="10"></path><path d="M 54 102.5 L 946 102.5" fill="none" stroke="rgba(158, 158, 158, 0.2)" stroke-width="1" paint-order="fill" stroke-opacity="1" stroke-dasharray="" stroke-linecap="butt" stroke-miterlimit="10"></path><path d="M 54 54.5 L 946 54.5" fill="none" stroke="rgba(158, 158, 158, 0.2)" stroke-width="1" paint-order="fill" stroke-opacity="1" stroke-dasharray="" stroke-linecap="butt" stroke-miterlimit="10"></path><text xml:space="preserve" style="font: sans-serif 12px normal normal normal 12px;" fill="#6E7079" fill-opacity="1" stroke="none" transform="matrix(1,0,0,1,54,39)" dominant-baseline="central" text-anchor="middle" x="0" y="-7.5">Focus On</text><text xml:space="preserve" style="font: sans-serif 12px normal normal normal 12px;" fill="#6E7079" fill-opacity="1" stroke="none" transform="matrix(1,0,0,1,46,346)" dominant-baseline="central" text-anchor="end" x="0" y="0">0</text><text xml:space="preserve" style="font: sans-serif 12px normal normal normal 12px;" fill="#6E7079" fill-opacity="1" stroke="none" transform="matrix(1,0,0,1,46,297.3333)" dominant-baseline="central" text-anchor="end" x="0" y="0">10</text><text xml:space="preserve" style="font: sans-serif 12px normal normal normal 12px;" fill="#6E7079" fill-opacity="1" stroke="none" transform="matrix(1,0,0,1,46,248.6667)" dominant-baseline="central" text-anchor="end" x="0" y="0">20</text><text xml:space="preserve" style="font: sans-serif 12px normal normal normal 12px;" fill="#6E7079" fill-opacity="1" stroke="none" transform="matrix(1,0,0,1,46,200)" dominant-baseline="central" text-anchor="end" x="0" y="0">30</text><text xml:space="preserve" style="font: sans-serif 12px normal normal normal 12px;" fill="#6E7079" fill-opacity="1" stroke="none" transform="matrix(1,0,0,1,46,151.3333)" dominant-baseline="central" text-anchor="end" x="0" y="0">40</text><text xml:space="preserve" style="font: sans-serif 12px normal normal normal 12px;" fill="#6E7079" fill-opacity="1" stroke="none" transform="matrix(1,0,0,1,46,102.6667)" dominant-baseline="central" text-anchor="end" x="0" y="0">50</text><text xml:space="preserve" style="font: sans-serif 12px normal normal normal 12px;" fill="#6E7079" fill-opacity="1" stroke="none" transform="matrix(1,0,0,1,46,54)" dominant-baseline="central" text-anchor="end" x="0" y="0">60</text><text xml:space="preserve" style="font: sans-serif 12px normal normal normal 12px;" fill="#6E7079" fill-opacity="1" stroke="none" transform="matrix(1,0,0,1,73.3913,354)" dominant-baseline="central" text-anchor="middle" x="0" y="7.5">2019/08</text><text xml:space="preserve" style="font: sans-serif 12px normal normal normal 12px;" fill="#6E7079" fill-opacity="1" stroke="none" transform="matrix(1,0,0,1,150.9565,354)" dominant-baseline="central" text-anchor="middle" x="0" y="7.5">2019/10</text><text xml:space="preserve" style="font: sans-serif 12px normal normal normal 12px;" fill="#6E7079" fill-opacity="1" stroke="none" transform="matrix(1,0,0,1,228.5217,354)" dominant-baseline="central" text-anchor="middle" x="0" y="7.5">2019/12</text><text xml:space="preserve" style="font: sans-serif 12px normal normal normal 12px;" fill="#6E7079" fill-opacity="1" stroke="none" transform="matrix(1,0,0,1,306.087,354)" dominant-baseline="central" text-anchor="middle" x="0" y="7.5">2020/02</text><text xml:space="preserve" style="font: sans-serif 12px normal normal normal 12px;" fill="#6E7079" fill-opacity="1" stroke="none" transform="matrix(1,0,0,1,383.6522,354)" dominant-baseline="central" text-anchor="middle" x="0" y="7.5">2020/04</text><text xml:space="preserve" style="font: sans-serif 12px normal normal normal 12px;" fill="#6E7079" fill-opacity="1" stroke="none" transform="matrix(1,0,0,1,461.2174,354)" dominant-baseline="central" text-anchor="middle" x="0" y="7.5">2020/06</text><text xml:space="preserve" style="font: sans-serif 12px normal normal normal 12px;" fill="#6E7079" fill-opacity="1" stroke="none" transform="matrix(1,0,0,1,538.7826,354)" dominant-baseline="central" text-anchor="middle" x="0" y="7.5">2020/11</text><text xml:space="preserve" style="font: sans-serif 12px normal normal normal 12px;" fill="#6E7079" fill-opacity="1" stroke="none" transform="matrix(1,0,0,1,616.3478,354)" dominant-baseline="central" text-anchor="middle" x="0" y="7.5">2021/01</text><text xml:space="preserve" style="font: sans-serif 12px normal normal normal 12px;" fill="#6E7079" fill-opacity="1" stroke="none" transform="matrix(1,0,0,1,693.913,354)" dominant-baseline="central" text-anchor="middle" x="0" y="7.5">2021/03</text><text xml:space="preserve" style="font: sans-serif 12px normal normal normal 12px;" fill="#6E7079" fill-opacity="1" stroke="none" transform="matrix(1,0,0,1,771.4783,354)" dominant-baseline="central" text-anchor="middle" x="0" y="7.5">2021/05</text><text xml:space="preserve" style="font: sans-serif 12px normal normal normal 12px;" fill="#6E7079" fill-opacity="1" stroke="none" transform="matrix(1,0,0,1,849.0435,354)" dominant-baseline="central" text-anchor="middle" x="0" y="7.5">2021/07</text><text xml:space="preserve" style="font: sans-serif 12px normal normal normal 12px;" fill="#6E7079" fill-opacity="1" stroke="none" transform="matrix(1,0,0,1,926.6087,354)" dominant-baseline="central" text-anchor="middle" x="0" y="7.5">2021/09</text><path d="M 1 0 A 1 1 0 1 1 1 -0.0001" fill="rgba(132, 150, 255, 0.28)" fill-opacity="0.8" stroke="none" transform="matrix(29.5,0,0,29.5,73.3913,346)"></path><path d="M 1 0 A 1 1 0 1 1 1 -0.0001" fill="rgba(132, 150, 255, 0.28)" fill-opacity="0.8" stroke="none" transform="matrix(12.292,0,0,12.292,112.1739,333.5159)"></path><path d="M 1 0 A 1 1 0 1 1 1 -0.0001" fill="rgba(132, 150, 255, 0.28)" fill-opacity="0.8" stroke="none" transform="matrix(12.292,0,0,12.292,150.9565,321.0319)"></path><path d="M 1 0 A 1 1 0 1 1 1 -0.0001" fill="rgba(132, 150, 255, 0.28)" fill-opacity="0.8" stroke="none" transform="matrix(22.125,0,0,22.125,189.7391,308.5478)"></path><path d="M 1 0 A 1 1 0 1 1 1 -0.0001" fill="rgba(132, 150, 255, 0.28)" fill-opacity="0.8" stroke="none" transform="matrix(4.917,0,0,4.917,228.5217,296.0638)"></path><path d="M 1 0 A 1 1 0 1 1 1 -0.0001" fill="rgba(132, 150, 255, 0.28)" fill-opacity="0.8" stroke="none" transform="matrix(2.458,0,0,2.458,267.3043,283.5797)"></path><path d="M 1 0 A 1 1 0 1 1 1 -0.0001" fill="rgba(132, 150, 255, 0.28)" fill-opacity="0.8" stroke="none" transform="matrix(2.458,0,0,2.458,306.087,271.0957)"></path><path d="M 1 0 A 1 1 0 1 1 1 -0.0001" fill="rgba(132, 150, 255, 0.28)" fill-opacity="0.8" stroke="none" transform="matrix(2.458,0,0,2.458,344.8696,258.6116)"></path><path d="M 1 0 A 1 1 0 1 1 1 -0.0001" fill="rgba(132, 150, 255, 0.28)" fill-opacity="0.8" stroke="none" transform="matrix(17.208,0,0,17.208,383.6522,246.1275)"></path><path d="M 1 0 A 1 1 0 1 1 1 -0.0001" fill="rgba(132, 150, 255, 0.28)" fill-opacity="0.8" stroke="none" transform="matrix(4.917,0,0,4.917,422.4348,233.6435)"></path><path d="M 1 0 A 1 1 0 1 1 1 -0.0001" fill="rgba(132, 150, 255, 0.28)" fill-opacity="0.8" stroke="none" transform="matrix(4.917,0,0,4.917,461.2174,221.1594)"></path><path d="M 1 0 A 1 1 0 1 1 1 -0.0001" fill="rgba(132, 150, 255, 0.28)" fill-opacity="0.8" stroke="none" transform="matrix(4.917,0,0,4.917,500,208.6754)"></path><path d="M 1 0 A 1 1 0 1 1 1 -0.0001" fill="rgba(132, 150, 255, 0.28)" fill-opacity="0.8" stroke="none" transform="matrix(2.458,0,0,2.458,538.7826,196.1913)"></path><path d="M 1 0 A 1 1 0 1 1 1 -0.0001" fill="rgba(132, 150, 255, 0.28)" fill-opacity="0.8" stroke="none" transform="matrix(17.208,0,0,17.208,577.5652,183.7072)"></path><path d="M 1 0 A 1 1 0 1 1 1 -0.0001" fill="rgba(132, 150, 255, 0.28)" fill-opacity="0.8" stroke="none" transform="matrix(9.833,0,0,9.833,616.3478,171.2232)"></path><path d="M 1 0 A 1 1 0 1 1 1 -0.0001" fill="rgba(132, 150, 255, 0.28)" fill-opacity="0.8" stroke="none" transform="matrix(7.375,0,0,7.375,655.1304,158.7391)"></path><path d="M 1 0 A 1 1 0 1 1 1 -0.0001" fill="rgba(132, 150, 255, 0.28)" fill-opacity="0.8" stroke="none" transform="matrix(7.375,0,0,7.375,693.913,146.2551)"></path><path d="M 1 0 A 1 1 0 1 1 1 -0.0001" fill="rgba(132, 150, 255, 0.28)" fill-opacity="0.8" stroke="none" transform="matrix(4.917,0,0,4.917,732.6957,133.771)"></path><path d="M 1 0 A 1 1 0 1 1 1 -0.0001" fill="rgba(132, 150, 255, 0.28)" fill-opacity="0.8" stroke="none" transform="matrix(14.75,0,0,14.75,771.4783,121.287)"></path><path d="M 1 0 A 1 1 0 1 1 1 -0.0001" fill="rgba(132, 150, 255, 0.28)" fill-opacity="0.8" stroke="none" transform="matrix(7.375,0,0,7.375,810.2609,108.8029)"></path><path d="M 1 0 A 1 1 0 1 1 1 -0.0001" fill="rgba(132, 150, 255, 0.28)" fill-opacity="0.8" stroke="none" transform="matrix(9.833,0,0,9.833,849.0435,96.3188)"></path><path d="M 1 0 A 1 1 0 1 1 1 -0.0001" fill="rgba(132, 150, 255, 0.28)" fill-opacity="0.8" stroke="none" transform="matrix(7.375,0,0,7.375,887.8261,83.8348)"></path><path d="M 1 0 A 1 1 0 1 1 1 -0.0001" fill="rgba(132, 150, 255, 0.28)" fill-opacity="0.8" stroke="none" transform="matrix(4.917,0,0,4.917,926.6087,71.3507)"></path><text xml:space="preserve" style="font: sans-serif 12px normal normal normal 12px;" fill="#747474" fill-opacity="0.8" stroke="none" transform="matrix(1,0,0,1,73.3913,346)" dominant-baseline="central" text-anchor="middle" x="0" y="0">Javascript</text><text xml:space="preserve" style="font: sans-serif 12px normal normal normal 12px;" fill="#747474" fill-opacity="0.8" stroke="none" transform="matrix(1,0,0,1,112.1739,333.5159)" dominant-baseline="central" text-anchor="middle" x="0" y="0">BrowserAPI</text><text xml:space="preserve" style="font: sans-serif 12px normal normal normal 12px;" fill="#747474" fill-opacity="0.8" stroke="none" transform="matrix(1,0,0,1,150.9565,321.0319)" dominant-baseline="central" text-anchor="middle" x="0" y="0">Javascript</text><text xml:space="preserve" style="font: sans-serif 12px normal normal normal 12px;" fill="#747474" fill-opacity="0.8" stroke="none" transform="matrix(1,0,0,1,189.7391,308.5478)" dominant-baseline="central" text-anchor="middle" x="0" y="0">React</text><text xml:space="preserve" style="font: sans-serif 12px normal normal normal 12px;" fill="#747474" fill-opacity="0.8" stroke="none" transform="matrix(1,0,0,1,228.5217,296.0638)" dominant-baseline="central" text-anchor="middle" x="0" y="0">Javascript</text><text xml:space="preserve" style="font: sans-serif 12px normal normal normal 12px;" fill="#747474" fill-opacity="0.8" stroke="none" transform="matrix(1,0,0,1,267.3043,283.5797)" dominant-baseline="central" text-anchor="middle" x="0" y="0">Linux</text><text xml:space="preserve" style="font: sans-serif 12px normal normal normal 12px;" fill="#747474" fill-opacity="0.8" stroke="none" transform="matrix(1,0,0,1,306.087,271.0957)" dominant-baseline="central" text-anchor="middle" x="0" y="0">Github-API</text><text xml:space="preserve" style="font: sans-serif 12px normal normal normal 12px;" fill="#747474" fill-opacity="0.8" stroke="none" transform="matrix(1,0,0,1,344.8696,258.6116)" dominant-baseline="central" text-anchor="middle" x="0" y="0">Javascript</text><text xml:space="preserve" style="font: sans-serif 12px normal normal normal 12px;" fill="#747474" fill-opacity="0.8" stroke="none" transform="matrix(1,0,0,1,383.6522,246.1275)" dominant-baseline="central" text-anchor="middle" x="0" y="0">Javascript</text><text xml:space="preserve" style="font: sans-serif 12px normal normal normal 12px;" fill="#747474" fill-opacity="0.8" stroke="none" transform="matrix(1,0,0,1,422.4348,233.6435)" dominant-baseline="central" text-anchor="middle" x="0" y="0">CSS</text><text xml:space="preserve" style="font: sans-serif 12px normal normal normal 12px;" fill="#747474" fill-opacity="0.8" stroke="none" transform="matrix(1,0,0,1,461.2174,221.1594)" dominant-baseline="central" text-anchor="middle" x="0" y="0">CSS</text><text xml:space="preserve" style="font: sans-serif 12px normal normal normal 12px;" fill="#747474" fill-opacity="0.8" stroke="none" transform="matrix(1,0,0,1,500,208.6754)" dominant-baseline="central" text-anchor="middle" x="0" y="0">Ant-Design</text><text xml:space="preserve" style="font: sans-serif 12px normal normal normal 12px;" fill="#747474" fill-opacity="0.8" stroke="none" transform="matrix(1,0,0,1,538.7826,196.1913)" dominant-baseline="central" text-anchor="middle" x="0" y="0">Ant-Design</text><text xml:space="preserve" style="font: sans-serif 12px normal normal normal 12px;" fill="#747474" fill-opacity="0.8" stroke="none" transform="matrix(1,0,0,1,577.5652,183.7072)" dominant-baseline="central" text-anchor="middle" x="0" y="0">Wechat</text><text xml:space="preserve" style="font: sans-serif 12px normal normal normal 12px;" fill="#747474" fill-opacity="0.8" stroke="none" transform="matrix(1,0,0,1,616.3478,171.2232)" dominant-baseline="central" text-anchor="middle" x="0" y="0">React</text><text xml:space="preserve" style="font: sans-serif 12px normal normal normal 12px;" fill="#747474" fill-opacity="0.8" stroke="none" transform="matrix(1,0,0,1,693.913,146.2551)" dominant-baseline="central" text-anchor="middle" x="0" y="0">Nextjs</text><text xml:space="preserve" style="font: sans-serif 12px normal normal normal 12px;" fill="#747474" fill-opacity="0.8" stroke="none" transform="matrix(1,0,0,1,732.6957,133.771)" dominant-baseline="central" text-anchor="middle" x="0" y="0">ECharts</text><text xml:space="preserve" style="font: sans-serif 12px normal normal normal 12px;" fill="#747474" fill-opacity="0.8" stroke="none" transform="matrix(1,0,0,1,771.4783,121.287)" dominant-baseline="central" text-anchor="middle" x="0" y="0">Javascript</text><text xml:space="preserve" style="font: sans-serif 12px normal normal normal 12px;" fill="#747474" fill-opacity="0.8" stroke="none" transform="matrix(1,0,0,1,810.2609,108.8029)" dominant-baseline="central" text-anchor="middle" x="0" y="0">webpack</text><text xml:space="preserve" style="font: sans-serif 12px normal normal normal 12px;" fill="#747474" fill-opacity="0.8" stroke="none" transform="matrix(1,0,0,1,849.0435,96.3188)" dominant-baseline="central" text-anchor="middle" x="0" y="0">nginx</text><text xml:space="preserve" style="font: sans-serif 12px normal normal normal 12px;" fill="#747474" fill-opacity="0.8" stroke="none" transform="matrix(1,0,0,1,887.8261,83.8348)" dominant-baseline="central" text-anchor="middle" x="0" y="0">Node</text><text xml:space="preserve" style="font: sans-serif 12px normal normal normal 12px;" fill="#747474" fill-opacity="0.8" stroke="none" transform="matrix(1,0,0,1,926.6087,71.3507)" dominant-baseline="central" text-anchor="middle" x="0" y="0">docker</text><g clip-path="url(#zr2323-clip-0)"><path d="M 73.3913 58.8667 C 73.3913 58.8667 85.1941 243.8 112.1739 243.8 C 123.9767 243.8 124.5589 170.8 150.9565 170.8 C 163.3415 170.8 181.8164 170.8 189.7391 170.8 C 220.599 170.8 197.8561 280.0278 228.5217 316.8 C 236.6387 326.5333 247.913 321.6667 267.3044 326.5333 C 286.6956 331.4 286.3996 336.2667 306.0869 336.2667 C 325.1822 336.2667 331.0563 336.2667 344.8696 336.2667 C 369.8389 336.2667 363.6915 277.8667 383.6522 277.8667 C 402.4741 277.8667 398.2693 331.4 422.4348 331.4 C 437.0519 331.4 441.8261 326.5333 461.2174 321.6667 C 480.6087 316.8 480.955 311.9333 500 311.9333 C 519.7377 311.9333 526.2688 326.5333 538.7826 326.5333 C 565.0515 326.5333 551.2964 279.315 577.5652 248.6667 C 590.079 234.0667 602.9369 234.0667 616.3478 234.0667 C 641.7195 234.0667 629.4471 283.1162 655.1304 302.2 C 668.2297 311.9333 674.3014 311.9333 693.913 311.9333 C 713.084 311.9333 723.3474 311.9333 732.6957 307.0667 C 762.13 291.7434 752.4448 190.2667 771.4783 190.2667 C 791.2274 190.2667 783.1466 311.9333 810.2609 311.9333 C 821.9292 311.9333 827.373 273 849.0435 273 C 866.1556 273 868.4348 282.7333 887.8261 292.4667 C 907.2174 302.2 926.6087 311.9333 926.6087 311.9333" fill="none" stroke="#5470c6" stroke-width="2" paint-order="fill" stroke-opacity="1" stroke-dasharray="" stroke-linecap="butt" stroke-linejoin="bevel" stroke-miterlimit="10"></path></g></g></svg>