<svg xmlns="http://www.w3.org/2000/svg" xmlns:xlink="http://www.w3.org/1999/xlink" version="1.1" baseProfile="full" style="user-select: none; position: absolute; left: 0px; top: 0px;" width="500" height="500"><g><rect width="500" height="500" x="0" y="0" id="0" style="fill: transparent;"></rect></g><g><path d="M 256.3049 188.3651 L 261.7028 135.597 L 276.7028 135.597" fill="none" stroke="#5470c6" stroke-width="1" paint-order="fill" stroke-opacity="1" stroke-dasharray="" stroke-linecap="butt" stroke-miterlimit="10"></path><path d="M 264.5024 195.3704 L 302.2144 149.697 L 317.2144 149.697" fill="none" stroke="#91cc75" stroke-width="1" paint-order="fill" stroke-opacity="1" stroke-dasharray="" stroke-linecap="butt" stroke-miterlimit="10"></path><path d="M 283.3232 187.7 L 321.6465 163.797 L 336.6465 163.797" fill="none" stroke="#fac858" stroke-width="1" paint-order="fill" stroke-opacity="1" stroke-dasharray="" stroke-linecap="butt" stroke-miterlimit="10"></path><path d="M 283.0403 209.6211 L 334.9031 177.897 L 349.9031 177.897" fill="none" stroke="#ee6666" stroke-width="1" paint-order="fill" stroke-opacity="1" stroke-dasharray="" stroke-linecap="butt" stroke-miterlimit="10"></path><path d="M 287.8127 209.4634 L 344.4845 191.997 L 359.4845 191.997" fill="none" stroke="#73c0de" stroke-width="1" paint-order="fill" stroke-opacity="1" stroke-dasharray="" stroke-linecap="butt" stroke-miterlimit="10"></path><path d="M 299.7029 211.2173 L 351.3882 206.097 L 366.3882 206.097" fill="none" stroke="#3ba272" stroke-width="1" paint-order="fill" stroke-opacity="1" stroke-dasharray="" stroke-linecap="butt" stroke-miterlimit="10"></path><path d="M 300.9238 223.0644 L 356.1144 220.197 L 371.1144 220.197" fill="none" stroke="#fc8452" stroke-width="1" paint-order="fill" stroke-opacity="1" stroke-dasharray="" stroke-linecap="butt" stroke-miterlimit="10"></path><path d="M 301.5759 229.6791 L 358.9346 234.297 L 373.9346 234.297" fill="none" stroke="#9a60b4" stroke-width="1" paint-order="fill" stroke-opacity="1" stroke-dasharray="" stroke-linecap="butt" stroke-miterlimit="10"></path><path d="M 300.8634 234.2 L 359.9889 248.397 L 374.9889 248.397" fill="none" stroke="#ea7ccc" stroke-width="1" paint-order="fill" stroke-opacity="1" stroke-dasharray="" stroke-linecap="butt" stroke-miterlimit="10"></path><path d="M 299.3154 236.6634 L 359.5444 262.497 L 374.5444 262.497" fill="none" stroke="#5470c6" stroke-width="1" paint-order="fill" stroke-opacity="1" stroke-dasharray="" stroke-linecap="butt" stroke-miterlimit="10"></path><path d="M 348.5339 267.0605 L 357.9215 276.597 L 372.9215 276.597" fill="none" stroke="#91cc75" stroke-width="1" paint-order="fill" stroke-opacity="1" stroke-dasharray="" stroke-linecap="butt" stroke-miterlimit="10"></path><path d="M 294.3288 283.2862 L 345.1585 319.0526 L 360.1585 319.0526" fill="none" stroke="#fac858" stroke-width="1" paint-order="fill" stroke-opacity="1" stroke-dasharray="" stroke-linecap="butt" stroke-miterlimit="10"></path><path d="M 289.0841 282.8985 L 337.7065 333.1526 L 352.7065 333.1526" fill="none" stroke="#ee6666" stroke-width="1" paint-order="fill" stroke-opacity="1" stroke-dasharray="" stroke-linecap="butt" stroke-miterlimit="10"></path><path d="M 292.6793 294.912 L 328.0119 347.2526 L 343.0119 347.2526" fill="none" stroke="#73c0de" stroke-width="1" paint-order="fill" stroke-opacity="1" stroke-dasharray="" stroke-linecap="butt" stroke-miterlimit="10"></path><path d="M 282.3547 298.973 L 315.1511 361.3526 L 330.1511 361.3526" fill="none" stroke="#3ba272" stroke-width="1" paint-order="fill" stroke-opacity="1" stroke-dasharray="" stroke-linecap="butt" stroke-miterlimit="10"></path><path d="M 274.569 306.8768 L 296.818 375.4526 L 311.818 375.4526" fill="none" stroke="#fc8452" stroke-width="1" paint-order="fill" stroke-opacity="1" stroke-dasharray="" stroke-linecap="butt" stroke-miterlimit="10"></path><path d="M 255.7163 326.9619 L 258.518 389.5526 L 273.518 389.5526" fill="none" stroke="#9a60b4" stroke-width="1" paint-order="fill" stroke-opacity="1" stroke-dasharray="" stroke-linecap="butt" stroke-miterlimit="10"></path><path d="M 233.2603 310.7804 L 219.4645 492.75 L 204.4645 492.75" fill="none" stroke="#ea7ccc" stroke-width="1" paint-order="fill" stroke-opacity="1" stroke-dasharray="" stroke-linecap="butt" stroke-miterlimit="10"></path><path d="M 227.0778 300.4736 L 204.8102 479.65 L 189.8102 479.65" fill="none" stroke="#5470c6" stroke-width="1" paint-order="fill" stroke-opacity="1" stroke-dasharray="" stroke-linecap="butt" stroke-miterlimit="10"></path><path d="M 219.4825 300.1384 L 194.1264 466.55 L 179.1264 466.55" fill="none" stroke="#91cc75" stroke-width="1" paint-order="fill" stroke-opacity="1" stroke-dasharray="" stroke-linecap="butt" stroke-miterlimit="10"></path><path d="M 216.7655 293.0018 L 185.5558 453.45 L 170.5558 453.45" fill="none" stroke="#fac858" stroke-width="1" paint-order="fill" stroke-opacity="1" stroke-dasharray="" stroke-linecap="butt" stroke-miterlimit="10"></path><path d="M 213.6717 290.422 L 178.3859 440.35 L 163.3859 440.35" fill="none" stroke="#ee6666" stroke-width="1" paint-order="fill" stroke-opacity="1" stroke-dasharray="" stroke-linecap="butt" stroke-miterlimit="10"></path><path d="M 211.9051 287.2223 L 172.2518 427.25 L 157.2518 427.25" fill="none" stroke="#73c0de" stroke-width="1" paint-order="fill" stroke-opacity="1" stroke-dasharray="" stroke-linecap="butt" stroke-miterlimit="10"></path><path d="M 211.0337 284.695 L 166.9367 414.15 L 151.9367 414.15" fill="none" stroke="#3ba272" stroke-width="1" paint-order="fill" stroke-opacity="1" stroke-dasharray="" stroke-linecap="butt" stroke-miterlimit="10"></path><path d="M 205.1185 284.3563 L 162.2996 401.05 L 147.2996 401.05" fill="none" stroke="#fc8452" stroke-width="1" paint-order="fill" stroke-opacity="1" stroke-dasharray="" stroke-linecap="butt" stroke-miterlimit="10"></path><path d="M 203.9728 278.8996 L 158.2431 387.95 L 143.2431 387.95" fill="none" stroke="#9a60b4" stroke-width="1" paint-order="fill" stroke-opacity="1" stroke-dasharray="" stroke-linecap="butt" stroke-miterlimit="10"></path><path d="M 194.6952 275.426 L 154.6967 374.85 L 139.6967 374.85" fill="none" stroke="#ea7ccc" stroke-width="1" paint-order="fill" stroke-opacity="1" stroke-dasharray="" stroke-linecap="butt" stroke-miterlimit="10"></path><path d="M 194.5307 265.5538 L 151.6078 361.75 L 136.6078 361.75" fill="none" stroke="#5470c6" stroke-width="1" paint-order="fill" stroke-opacity="1" stroke-dasharray="" stroke-linecap="butt" stroke-miterlimit="10"></path><path d="M 199.9237 260.1116 L 148.9366 348.65 L 133.9366 348.65" fill="none" stroke="#91cc75" stroke-width="1" paint-order="fill" stroke-opacity="1" stroke-dasharray="" stroke-linecap="butt" stroke-miterlimit="10"></path><path d="M 195.1361 257.9354 L 146.652 335.55 L 131.652 335.55" fill="none" stroke="#fac858" stroke-width="1" paint-order="fill" stroke-opacity="1" stroke-dasharray="" stroke-linecap="butt" stroke-miterlimit="10"></path><path d="M 196.8677 253.6989 L 144.7301 322.45 L 129.7301 322.45" fill="none" stroke="#ee6666" stroke-width="1" paint-order="fill" stroke-opacity="1" stroke-dasharray="" stroke-linecap="butt" stroke-miterlimit="10"></path><path d="M 197.8401 251.2087 L 143.1521 309.35 L 128.1521 309.35" fill="none" stroke="#73c0de" stroke-width="1" paint-order="fill" stroke-opacity="1" stroke-dasharray="" stroke-linecap="butt" stroke-miterlimit="10"></path><path d="M 189.3662 244.648 L 141.9037 296.25 L 126.9037 296.25" fill="none" stroke="#3ba272" stroke-width="1" paint-order="fill" stroke-opacity="1" stroke-dasharray="" stroke-linecap="butt" stroke-miterlimit="10"></path><path d="M 195.9879 237.5215 L 140.974 283.15 L 125.974 283.15" fill="none" stroke="#fc8452" stroke-width="1" paint-order="fill" stroke-opacity="1" stroke-dasharray="" stroke-linecap="butt" stroke-miterlimit="10"></path><path d="M 200.9402 235.7517 L 140.3554 270.05 L 125.3554 270.05" fill="none" stroke="#9a60b4" stroke-width="1" paint-order="fill" stroke-opacity="1" stroke-dasharray="" stroke-linecap="butt" stroke-miterlimit="10"></path><path d="M 201.2127 234.8449 L 140.0426 256.95 L 125.0426 256.95" fill="none" stroke="#ea7ccc" stroke-width="1" paint-order="fill" stroke-opacity="1" stroke-dasharray="" stroke-linecap="butt" stroke-miterlimit="10"></path><path d="M 190.9998 222.2099 L 140.0367 243.85 L 125.0367 243.85" fill="none" stroke="#5470c6" stroke-width="1" paint-order="fill" stroke-opacity="1" stroke-dasharray="" stroke-linecap="butt" stroke-miterlimit="10"></path><path d="M 207.2453 222.0372 L 140.3606 230.75 L 125.3606 230.75" fill="none" stroke="#91cc75" stroke-width="1" paint-order="fill" stroke-opacity="1" stroke-dasharray="" stroke-linecap="butt" stroke-miterlimit="10"></path><path d="M 205.943 218.1775 L 141.0212 217.65 L 126.0212 217.65" fill="none" stroke="#fac858" stroke-width="1" paint-order="fill" stroke-opacity="1" stroke-dasharray="" stroke-linecap="butt" stroke-miterlimit="10"></path><path d="M 210.0165 218.2007 L 142.0246 204.55 L 127.0246 204.55" fill="none" stroke="#ee6666" stroke-width="1" paint-order="fill" stroke-opacity="1" stroke-dasharray="" stroke-linecap="butt" stroke-miterlimit="10"></path><path d="M 210.6127 217.4651 L 143.3799 191.45 L 128.3799 191.45" fill="none" stroke="#73c0de" stroke-width="1" paint-order="fill" stroke-opacity="1" stroke-dasharray="" stroke-linecap="butt" stroke-miterlimit="10"></path><path d="M 206.572 204.3 L 145.1003 178.35 L 130.1003 178.35" fill="none" stroke="#3ba272" stroke-width="1" paint-order="fill" stroke-opacity="1" stroke-dasharray="" stroke-linecap="butt" stroke-miterlimit="10"></path><path d="M 219.2548 207.8473 L 147.2031 165.25 L 132.2031 165.25" fill="none" stroke="#fc8452" stroke-width="1" paint-order="fill" stroke-opacity="1" stroke-dasharray="" stroke-linecap="butt" stroke-miterlimit="10"></path><path d="M 221.0543 207.9046 L 149.7114 152.15 L 134.7114 152.15" fill="none" stroke="#3ba272" stroke-width="1" paint-order="fill" stroke-opacity="1" stroke-dasharray="" stroke-linecap="butt" stroke-miterlimit="10"></path><path d="M 221.6449 206.2038 L 152.6548 139.05 L 137.6548 139.05" fill="none" stroke="#9a60b4" stroke-width="1" paint-order="fill" stroke-opacity="1" stroke-dasharray="" stroke-linecap="butt" stroke-miterlimit="10"></path><path d="M 223.1561 203.9986 L 156.0723 125.95 L 141.0723 125.95" fill="none" stroke="#ea7ccc" stroke-width="1" paint-order="fill" stroke-opacity="1" stroke-dasharray="" stroke-linecap="butt" stroke-miterlimit="10"></path><path d="M 225.7088 201.3829 L 160.015 112.85 L 145.015 112.85" fill="none" stroke="#5470c6" stroke-width="1" paint-order="fill" stroke-opacity="1" stroke-dasharray="" stroke-linecap="butt" stroke-miterlimit="10"></path><path d="M 229.4403 198.5188 L 164.5515 99.75 L 149.5515 99.75" fill="none" stroke="#91cc75" stroke-width="1" paint-order="fill" stroke-opacity="1" stroke-dasharray="" stroke-linecap="butt" stroke-miterlimit="10"></path><path d="M 233.7188 201.5769 L 169.7766 86.65 L 154.7766 86.65" fill="none" stroke="#fac858" stroke-width="1" paint-order="fill" stroke-opacity="1" stroke-dasharray="" stroke-linecap="butt" stroke-miterlimit="10"></path><path d="M 235.7354 194.1853 L 175.8266 73.55 L 160.8266 73.55" fill="none" stroke="#ee6666" stroke-width="1" paint-order="fill" stroke-opacity="1" stroke-dasharray="" stroke-linecap="butt" stroke-miterlimit="10"></path><path d="M 241.0511 199.7029 L 182.9088 60.45 L 167.9088 60.45" fill="none" stroke="#73c0de" stroke-width="1" paint-order="fill" stroke-opacity="1" stroke-dasharray="" stroke-linecap="butt" stroke-miterlimit="10"></path><path d="M 241.9849 199.5457 L 191.3669 47.35 L 176.3669 47.35" fill="none" stroke="#3ba272" stroke-width="1" paint-order="fill" stroke-opacity="1" stroke-dasharray="" stroke-linecap="butt" stroke-miterlimit="10"></path><path d="M 243.2499 198.2646 L 201.8538 34.25 L 186.8538 34.25" fill="none" stroke="#fc8452" stroke-width="1" paint-order="fill" stroke-opacity="1" stroke-dasharray="" stroke-linecap="butt" stroke-miterlimit="10"></path><path d="M 246.4064 194.6818 L 215.9722 21.15 L 200.9722 21.15" fill="none" stroke="#9a60b4" stroke-width="1" paint-order="fill" stroke-opacity="1" stroke-dasharray="" stroke-linecap="butt" stroke-miterlimit="10"></path><path d="M 249.5266 198.9152 L 248.9343 7.05 L 233.9343 7.05" fill="none" stroke="#ea7ccc" stroke-width="1" paint-order="fill" stroke-opacity="1" stroke-dasharray="" stroke-linecap="butt" stroke-miterlimit="10"></path><path d="M 250 192.1817 A 4 4 0 0 1 254.2761 188.1912 A 61.9565 61.9565 0 0 1 258.3269 188.6056 A 4 4 0 0 1 261.7065 193.3792 L 260.9033 197.2637 A 4 4 0 0 1 256.4687 200.4202 A 50 50 0 0 0 253.7037 200.1374 A 4 4 0 0 1 250 196.1484 Z" fill="#5470c6" fill-opacity="1" stroke="none"></path><path d="M 260.8247 197.6441 A 2.9758 2.9758 0 1 1 266.5681 199.1688 L 266.3814 199.7419 A 2.9423 2.9423 0 0 1 260.7026 198.2344 Z" fill="#91cc75" fill-opacity="1" stroke="none"></path><path d="M 270.6182 186.7434 A 4 4 0 0 1 275.8868 184.2611 A 70.6522 70.6522 0 0 1 290.3115 191.9767 A 4 4 0 0 1 291.1714 197.737 L 283.3245 207.6978 A 4 4 0 0 1 277.9467 208.5394 A 50 50 0 0 0 268.9737 203.7399 A 4 4 0 0 1 266.6885 198.7995 Z" fill="#fac858" fill-opacity="1" stroke="none"></path><path d="M 281.6934 209.7684 A 0.9494 0.9494 0 1 1 283.1626 210.9706 L 282.9811 211.1842 A 0.9442 0.9442 0 0 1 281.5199 209.9886 Z" fill="#ee6666" fill-opacity="1" stroke="none"></path><path d="M 284.2686 209.6689 A 2.454 2.454 0 1 1 287.8538 213.0132 L 287.4592 213.3987 A 2.4285 2.4285 0 0 1 283.9114 210.0893 Z" fill="#73c0de" fill-opacity="1" stroke="none"></path><path d="M 292.1338 208.8312 A 4 4 0 0 1 297.9731 209.097 A 63.0435 63.0435 0 0 1 301.3391 213.4106 A 4 4 0 0 1 300.1772 219.1393 L 295.8704 221.7882 A 4 4 0 0 1 290.5323 220.7231 A 50 50 0 0 0 288.2527 217.8017 A 4 4 0 0 1 288.5174 212.3648 Z" fill="#3ba272" fill-opacity="1" stroke="none"></path><path d="M 295.9863 221.7169 A 3.5071 3.5071 0 1 1 299.259 227.9042 L 298.6803 228.1638 A 3.4659 3.4659 0 0 1 295.446 222.0491 Z" fill="#fc8452" fill-opacity="1" stroke="none"></path><path d="M 298.2883 228.3396 A 2.454 2.454 0 1 1 300.0856 232.9011 L 299.5635 233.0794 A 2.4285 2.4285 0 0 1 297.785 228.5654 Z" fill="#9a60b4" fill-opacity="1" stroke="none"></path><path d="M 299.0223 233.2641 A 1.4405 1.4405 0 1 1 299.8766 236.0144 L 299.5006 236.1198 A 1.4296 1.4296 0 0 1 298.6527 233.3903 Z" fill="#ea7ccc" fill-opacity="1" stroke="none"></path><path d="M 298.736 236.3342 A 0.4691 0.4691 0 1 1 298.9809 237.2398 L 298.8356 237.2777 A 0.4677 0.4677 0 0 1 298.5914 236.3748 Z" fill="#5470c6" fill-opacity="1" stroke="none"></path><path d="M 342.8187 225.8195 A 4 4 0 0 1 347.7365 228.8441 A 100 100 0 0 1 334.9342 302.7842 A 4 4 0 0 1 329.2858 303.9793 L 294.5144 280.3063 A 4 4 0 0 1 293.3014 274.9998 A 50 50 0 0 0 299.1858 241.0137 A 4 4 0 0 1 302.1123 236.424 Z" fill="#91cc75" fill-opacity="1" stroke="none"></path><path d="M 293.7475 279.7841 A 2.454 2.454 0 1 1 290.8035 283.7047 L 290.3782 283.3534 A 2.4285 2.4285 0 0 1 293.2915 279.4737 Z" fill="#fac858" fill-opacity="1" stroke="none"></path><path d="M 289.024 282.2347 A 0.4691 0.4691 0 1 1 288.4199 282.9525 L 288.3059 282.8547 A 0.4677 0.4677 0 0 1 288.9082 282.1391 Z" fill="#ee6666" fill-opacity="1" stroke="none"></path><path d="M 293.887 287.6416 A 4 4 0 0 1 294.1321 293.4853 A 61.9565 61.9565 0 0 1 291.1804 296.2903 A 4 4 0 0 1 285.3568 295.7478 L 282.9311 292.6092 A 4 4 0 0 1 283.4222 287.1881 A 50 50 0 0 0 285.437 285.2735 A 4 4 0 0 1 290.8761 285.0592 Z" fill="#73c0de" fill-opacity="1" stroke="none"></path><path d="M 283.3576 293.1611 A 4 4 0 0 1 282.4008 298.9425 A 58.6957 58.6957 0 0 1 282.3086 299.0034 A 4 4 0 0 1 276.6153 297.6155 L 276.2748 297.0065 A 3.9998 3.9998 0 0 1 282.9309 292.609 Z" fill="#3ba272" fill-opacity="1" stroke="none"></path><path d="M 278.2103 300.4691 A 4 4 0 0 1 276.4248 306.0387 A 61.9565 61.9565 0 0 1 272.6867 307.6535 A 4 4 0 0 1 267.4076 305.1356 L 266.2133 301.353 A 4 4 0 0 1 268.5442 296.434 A 50 50 0 0 0 271.0957 295.3318 A 4 4 0 0 1 276.275 297.0067 Z" fill="#fc8452" fill-opacity="1" stroke="none"></path><path d="M 271.9978 319.6744 A 4 4 0 0 1 269.1774 324.7532 A 77.1739 77.1739 0 0 1 242.0765 326.7661 A 4 4 0 0 1 238.5368 322.1597 L 241.5511 303.1847 A 4 4 0 0 1 245.8348 299.8262 A 50 50 0 0 0 261.4805 298.6641 A 4 4 0 0 1 266.2133 301.353 Z" fill="#9a60b4" fill-opacity="1" stroke="none"></path><path d="M 240.7578 308.1783 A 4 4 0 0 1 235.9136 311.4496 A 63.0435 63.0435 0 0 1 230.6385 309.9968 A 4 4 0 0 1 228.1523 304.7066 L 230.0275 300.011 A 4 4 0 0 1 234.9465 297.6801 A 50 50 0 0 0 238.5191 298.664 A 4 4 0 0 1 241.5511 303.1847 Z" fill="#ea7ccc" fill-opacity="1" stroke="none"></path><path d="M 230.3716 299.1494 A 2.454 2.454 0 1 1 225.9075 297.1221 L 226.1587 296.6309 A 2.4285 2.4285 0 0 1 230.5762 298.637 Z" fill="#5470c6" fill-opacity="1" stroke="none"></path><path d="M 225.1676 298.5692 A 4 4 0 0 1 219.5296 300.1671 A 58.6957 58.6957 0 0 1 219.4353 300.1097 A 4 4 0 0 1 218.2648 294.3677 L 218.6708 293.8002 A 3.9998 3.9998 0 0 1 225.4853 297.9479 Z" fill="#91cc75" fill-opacity="1" stroke="none"></path><path d="M 219.5328 292.595 A 1.9422 1.9422 0 1 1 216.4615 290.2213 L 216.7696 289.8519 A 1.9243 1.9243 0 0 1 219.8127 292.2038 Z" fill="#fac858" fill-opacity="1" stroke="none"></path><path d="M 216.4615 290.2213 A 1.9422 1.9422 0 1 1 213.5745 287.6266 L 213.909 287.281 A 1.9243 1.9243 0 0 1 216.7696 289.8519 Z" fill="#ee6666" fill-opacity="1" stroke="none"></path><path d="M 213.9704 287.2176 A 1.4405 1.4405 0 1 1 211.9578 285.1577 L 212.2446 284.8926 A 1.4296 1.4296 0 0 1 214.2421 286.9369 Z" fill="#73c0de" fill-opacity="1" stroke="none"></path><path d="M 212.3871 284.7609 A 0.9494 0.9494 0 1 1 211.1247 283.3431 L 211.3375 283.1606 A 0.9442 0.9442 0 0 1 212.593 284.5707 Z" fill="#3ba272" fill-opacity="1" stroke="none"></path><path d="M 209.4188 284.8063 A 2.9758 2.9758 0 1 1 205.8067 280.0876 L 206.305 279.7484 A 2.9423 2.9423 0 0 1 209.8763 284.4138 Z" fill="#fc8452" fill-opacity="1" stroke="none"></path><path d="M 206.7106 279.4722 A 1.9422 1.9422 0 1 1 204.6466 276.1848 L 205.0631 275.9443 A 1.9243 1.9243 0 0 1 207.1082 279.2015 Z" fill="#9a60b4" fill-opacity="1" stroke="none"></path><path d="M 200.8715 278.3644 A 4 4 0 0 1 195.2753 276.6517 A 60.8696 60.8696 0 0 1 194.1425 274.1877 A 4 4 0 0 1 196.4858 268.8249 L 199.1998 267.8702 A 4 4 0 0 1 204.1918 270.0403 A 50 50 0 0 0 204.9658 271.7238 A 4 4 0 0 1 203.3631 276.9258 Z" fill="#ea7ccc" fill-opacity="1" stroke="none"></path><path d="M 199.0714 267.9153 A 3.5071 3.5071 0 1 1 197.1816 261.1757 L 197.8022 261.0444 A 3.4659 3.4659 0 0 1 199.6698 267.7049 Z" fill="#5470c6" fill-opacity="1" stroke="none"></path><path d="M 200.4806 260.4777 A 0.4691 0.4691 0 1 1 200.295 259.5581 L 200.4424 259.5298 A 0.4677 0.4677 0 0 1 200.6276 260.4466 Z" fill="#91cc75" fill-opacity="1" stroke="none"></path><path d="M 198.0283 259.994 A 2.454 2.454 0 1 1 197.3265 255.1417 L 197.8756 255.0881 A 2.4285 2.4285 0 0 1 198.5701 259.8898 Z" fill="#fac858" fill-opacity="1" stroke="none"></path><path d="M 198.4447 255.0325 A 1.4405 1.4405 0 1 1 198.2447 252.1596 L 198.6349 252.1433 A 1.4296 1.4296 0 0 1 198.8334 254.9946 Z" fill="#ee6666" fill-opacity="1" stroke="none"></path><path d="M 198.8288 252.1352 A 0.9494 0.9494 0 1 1 198.7848 250.2373 L 199.0651 250.236 A 0.9442 0.9442 0 0 1 199.1089 252.1235 Z" fill="#73c0de" fill-opacity="1" stroke="none"></path><path d="M 193.2719 250.2629 A 4 4 0 0 1 189.262 246 A 60.8696 60.8696 0 0 1 189.5004 243.2987 A 4 4 0 0 1 194.195 239.8042 L 197.0253 240.3213 A 4 4 0 0 1 200.2837 244.6816 A 50 50 0 0 0 200.1207 246.5274 A 4 4 0 0 1 196.1489 250.2495 Z" fill="#3ba272" fill-opacity="1" stroke="none"></path><path d="M 197.9379 240.488 A 2.454 2.454 0 1 1 199.0416 235.711 L 199.5728 235.86 A 2.4285 2.4285 0 0 1 198.4806 240.5872 Z" fill="#fc8452" fill-opacity="1" stroke="none"></path><path d="M 201.264 236.3342 A 0.4691 0.4691 0 1 1 201.5257 235.4333 L 201.6695 235.4766 A 0.4677 0.4677 0 0 1 201.4086 236.3748 Z" fill="#9a60b4" fill-opacity="1" stroke="none"></path><path d="M 201.5257 235.4333 A 0.4691 0.4691 0 1 1 201.804 234.5374 L 201.947 234.5833 A 0.4677 0.4677 0 0 1 201.6695 235.4766 Z" fill="#ea7ccc" fill-opacity="1" stroke="none"></path><path d="M 191.8336 231.3387 A 4 4 0 0 1 189.3348 226.0617 A 65.2174 65.2174 0 0 1 192.9091 218.4732 A 4 4 0 0 1 198.569 217.0391 L 204.6604 220.9429 A 4 4 0 0 1 206.0204 226.2135 A 50 50 0 0 0 203.6525 231.2408 A 4 4 0 0 1 198.7227 233.5489 Z" fill="#5470c6" fill-opacity="1" stroke="none"></path><path d="M 207.3848 222.6889 A 0.4691 0.4691 0 1 1 207.8983 221.9038 L 208.0232 221.9872 A 0.4677 0.4677 0 0 1 207.5113 222.77 Z" fill="#91cc75" fill-opacity="1" stroke="none"></path><path d="M 206.4394 220.9302 A 1.9422 1.9422 0 1 1 208.7122 217.7835 L 209.0914 218.0794 A 1.9243 1.9243 0 0 1 206.8395 221.1972 Z" fill="#fac858" fill-opacity="1" stroke="none"></path><path d="M 210.095 218.8625 A 0.4691 0.4691 0 1 1 210.679 218.1283 L 210.7956 218.2228 A 0.4677 0.4677 0 0 1 210.2134 218.9549 Z" fill="#ee6666" fill-opacity="1" stroke="none"></path><path d="M 210.679 218.1283 A 0.4691 0.4691 0 1 1 211.2764 217.405 L 211.3913 217.5017 A 0.4677 0.4677 0 0 1 210.7956 218.2228 Z" fill="#73c0de" fill-opacity="1" stroke="none"></path><path d="M 204.9325 212.0651 A 4 4 0 0 1 204.6297 206.2276 A 63.0435 63.0435 0 0 1 208.596 202.4586 A 4 4 0 0 1 214.4105 203.0584 L 217.4652 207.0875 A 4 4 0 0 1 216.9238 212.5038 A 50 50 0 0 0 214.2376 215.0564 A 4 4 0 0 1 208.8008 215.3212 Z" fill="#3ba272" fill-opacity="1" stroke="none"></path><path d="M 219.0577 209.1879 A 0.9494 0.9494 0 1 1 220.5915 208.0692 L 220.7524 208.2987 A 0.9442 0.9442 0 0 1 219.2271 209.4113 Z" fill="#fc8452" fill-opacity="1" stroke="none"></path><path d="M 220.936 208.5605 A 0.4691 0.4691 0 1 1 221.709 208.0289 L 221.793 208.1535 A 0.4677 0.4677 0 0 1 221.0222 208.6834 Z" fill="#3ba272" fill-opacity="1" stroke="none"></path><path d="M 221.3736 207.5314 A 0.9494 0.9494 0 1 1 222.9672 206.4996 L 223.1152 206.7377 A 0.9442 0.9442 0 0 1 221.5303 207.7638 Z" fill="#9a60b4" fill-opacity="1" stroke="none"></path><path d="M 222.6586 206.0031 A 1.4405 1.4405 0 1 1 225.146 204.5516 L 225.3334 204.8943 A 1.4296 1.4296 0 0 1 222.8648 206.3348 Z" fill="#ea7ccc" fill-opacity="1" stroke="none"></path><path d="M 224.8729 204.0521 A 1.9422 1.9422 0 1 1 228.3452 202.3172 L 228.5441 202.7551 A 1.9243 1.9243 0 0 1 225.1036 204.4741 Z" fill="#5470c6" fill-opacity="1" stroke="none"></path><path d="M 228.1161 201.8126 A 2.454 2.454 0 1 1 232.6692 199.9942 L 232.8499 200.5155 A 2.4285 2.4285 0 0 1 228.3442 202.3149 Z" fill="#91cc75" fill-opacity="1" stroke="none"></path><path d="M 233.4251 202.1751 A 0.4691 0.4691 0 1 1 234.3143 201.8761 L 234.3608 202.0189 A 0.4677 0.4677 0 0 1 233.4743 202.317 Z" fill="#fac858" fill-opacity="1" stroke="none"></path><path d="M 233.2693 198.6701 A 3.5071 3.5071 0 1 1 240.0508 196.9369 L 240.1677 197.5603 A 3.4659 3.4659 0 0 1 233.4659 199.2731 Z" fill="#ee6666" fill-opacity="1" stroke="none"></path><path d="M 240.6723 200.2512 A 0.4691 0.4691 0 1 1 241.5959 200.0869 L 241.6208 200.235 A 0.4677 0.4677 0 0 1 240.6999 200.3988 Z" fill="#73c0de" fill-opacity="1" stroke="none"></path><path d="M 241.5959 200.0869 A 0.4691 0.4691 0 1 1 242.5224 199.9397 L 242.5446 200.0882 A 0.4677 0.4677 0 0 1 241.6208 200.235 Z" fill="#3ba272" fill-opacity="1" stroke="none"></path><path d="M 242.4337 199.3462 A 0.9494 0.9494 0 1 1 244.3162 199.1006 L 244.3473 199.3792 A 0.9442 0.9442 0 0 1 242.4752 199.6235 Z" fill="#fc8452" fill-opacity="1" stroke="none"></path><path d="M 244.1266 197.403 A 2.454 2.454 0 1 1 249.0191 197.0852 L 249.0294 197.6368 A 2.4285 2.4285 0 0 1 244.1879 197.9513 Z" fill="#9a60b4" fill-opacity="1" stroke="none"></path><path d="M 249.0619 199.393 A 0.4691 0.4691 0 1 1 250 199.3843 L 250 199.5345 A 0.4677 0.4677 0 0 1 249.0647 199.5431 Z" fill="#ea7ccc" fill-opacity="1" stroke="none"></path><text xml:space="preserve" style="font: sans-serif 12px normal normal normal 12px;" fill="#747474" fill-opacity="1" stroke="none" transform="matrix(1,0,0,1,281.7028,135.597)" dominant-baseline="central" text-anchor="start" x="0" y="0">Ant-Design组件</text><text xml:space="preserve" style="font: sans-serif 12px normal normal normal 12px;" fill="#747474" fill-opacity="1" stroke="none" transform="matrix(1,0,0,1,322.2144,149.697)" dominant-baseline="central" text-anchor="start" x="0" y="0">C++基础</text><text xml:space="preserve" style="font: sans-serif 12px normal normal normal 12px;" fill="#747474" fill-opacity="1" stroke="none" transform="matrix(1,0,0,1,341.6465,163.797)" dominant-baseline="central" text-anchor="start" x="0" y="0">CSS层叠样式表</text><text xml:space="preserve" style="font: sans-serif 12px normal normal normal 12px;" fill="#747474" fill-opacity="1" stroke="none" transform="matrix(1,0,0,1,354.9031,177.897)" dominant-baseline="central" text-anchor="start" x="0" y="0">ECharts</text><text xml:space="preserve" style="font: sans-serif 12px normal normal normal 12px;" fill="#747474" fill-opacity="1" stroke="none" transform="matrix(1,0,0,1,364.4845,191.997)" dominant-baseline="central" text-anchor="start" x="0" y="0">Github-API</text><text xml:space="preserve" style="font: sans-serif 12px normal normal normal 12px;" fill="#747474" fill-opacity="1" stroke="none" transform="matrix(1,0,0,1,371.3882,206.097)" dominant-baseline="central" text-anchor="start" x="0" y="0">Git版本控制</text><text xml:space="preserve" style="font: sans-serif 12px normal normal normal 12px;" fill="#747474" fill-opacity="1" stroke="none" transform="matrix(1,0,0,1,376.1144,220.197)" dominant-baseline="central" text-anchor="start" x="0" y="0">HTML超文本标记...</text><text xml:space="preserve" style="font: sans-serif 12px normal normal normal 12px;" fill="#747474" fill-opacity="1" stroke="none" transform="matrix(1,0,0,1,378.9346,234.297)" dominant-baseline="central" text-anchor="start" x="0" y="0">HTTP协议</text><text xml:space="preserve" style="font: sans-serif 12px normal normal normal 12px;" fill="#747474" fill-opacity="1" stroke="none" transform="matrix(1,0,0,1,379.9889,248.397)" dominant-baseline="central" text-anchor="start" x="0" y="0">Haskell基础</text><text xml:space="preserve" style="font: sans-serif 12px normal normal normal 12px;" fill="#747474" fill-opacity="1" stroke="none" transform="matrix(1,0,0,1,379.5444,262.497)" dominant-baseline="central" text-anchor="start" x="0" y="0">Html2canvas</text><text xml:space="preserve" style="font: sans-serif 12px normal normal normal 12px;" fill="#747474" fill-opacity="1" stroke="none" transform="matrix(1,0,0,1,377.9215,276.597)" dominant-baseline="central" text-anchor="start" x="0" y="0">Javascript基础</text><text xml:space="preserve" style="font: sans-serif 12px normal normal normal 12px;" fill="#747474" fill-opacity="1" stroke="none" transform="matrix(1,0,0,1,365.1585,319.0526)" dominant-baseline="central" text-anchor="start" x="0" y="0">Linux相关</text><text xml:space="preserve" style="font: sans-serif 12px normal normal normal 12px;" fill="#747474" fill-opacity="1" stroke="none" transform="matrix(1,0,0,1,357.7065,333.1526)" dominant-baseline="central" text-anchor="start" x="0" y="0">MacOS相关</text><text xml:space="preserve" style="font: sans-serif 12px normal normal normal 12px;" fill="#747474" fill-opacity="1" stroke="none" transform="matrix(1,0,0,1,348.0119,347.2526)" dominant-baseline="central" text-anchor="start" x="0" y="0">Nextjs服务端渲染</text><text xml:space="preserve" style="font: sans-serif 12px normal normal normal 12px;" fill="#747474" fill-opacity="1" stroke="none" transform="matrix(1,0,0,1,335.1511,361.3526)" dominant-baseline="central" text-anchor="start" x="0" y="0">Node</text><text xml:space="preserve" style="font: sans-serif 12px normal normal normal 12px;" fill="#747474" fill-opacity="1" stroke="none" transform="matrix(1,0,0,1,316.818,375.4526)" dominant-baseline="central" text-anchor="start" x="0" y="0">React-Hooks</text><text xml:space="preserve" style="font: sans-serif 12px normal normal normal 12px;" fill="#747474" fill-opacity="1" stroke="none" transform="matrix(1,0,0,1,278.518,389.5526)" dominant-baseline="central" text-anchor="start" x="0" y="0">React原理</text><text xml:space="preserve" style="font: sans-serif 12px normal normal normal 12px;" fill="#747474" fill-opacity="1" stroke="none" transform="matrix(1,0,0,1,199.4645,492.75)" dominant-baseline="central" text-anchor="end" x="0" y="0">React常用组件</text><text xml:space="preserve" style="font: sans-serif 12px normal normal normal 12px;" fill="#747474" fill-opacity="1" stroke="none" transform="matrix(1,0,0,1,184.8102,479.65)" dominant-baseline="central" text-anchor="end" x="0" y="0">React生态</text><text xml:space="preserve" style="font: sans-serif 12px normal normal normal 12px;" fill="#747474" fill-opacity="1" stroke="none" transform="matrix(1,0,0,1,174.1264,466.55)" dominant-baseline="central" text-anchor="end" x="0" y="0">Redux状态管理</text><text xml:space="preserve" style="font: sans-serif 12px normal normal normal 12px;" fill="#747474" fill-opacity="1" stroke="none" transform="matrix(1,0,0,1,165.5558,453.45)" dominant-baseline="central" text-anchor="end" x="0" y="0">Reflect反射原理</text><text xml:space="preserve" style="font: sans-serif 12px normal normal normal 12px;" fill="#747474" fill-opacity="1" stroke="none" transform="matrix(1,0,0,1,158.3859,440.35)" dominant-baseline="central" text-anchor="end" x="0" y="0">Typescript基础</text><text xml:space="preserve" style="font: sans-serif 12px normal normal normal 12px;" fill="#747474" fill-opacity="1" stroke="none" transform="matrix(1,0,0,1,152.2518,427.25)" dominant-baseline="central" text-anchor="end" x="0" y="0">VSCode插件开发</text><text xml:space="preserve" style="font: sans-serif 12px normal normal normal 12px;" fill="#747474" fill-opacity="1" stroke="none" transform="matrix(1,0,0,1,146.9367,414.15)" dominant-baseline="central" text-anchor="end" x="0" y="0">其他常用命令</text><text xml:space="preserve" style="font: sans-serif 12px normal normal normal 12px;" fill="#747474" fill-opacity="1" stroke="none" transform="matrix(1,0,0,1,142.2996,401.05)" dominant-baseline="central" text-anchor="end" x="0" y="0">前端构建工具</text><text xml:space="preserve" style="font: sans-serif 12px normal normal normal 12px;" fill="#747474" fill-opacity="1" stroke="none" transform="matrix(1,0,0,1,138.2431,387.95)" dominant-baseline="central" text-anchor="end" x="0" y="0">博客建设日志</text><text xml:space="preserve" style="font: sans-serif 12px normal normal normal 12px;" fill="#747474" fill-opacity="1" stroke="none" transform="matrix(1,0,0,1,134.6967,374.85)" dominant-baseline="central" text-anchor="end" x="0" y="0">微信小程序</text><text xml:space="preserve" style="font: sans-serif 12px normal normal normal 12px;" fill="#747474" fill-opacity="1" stroke="none" transform="matrix(1,0,0,1,131.6078,361.75)" dominant-baseline="central" text-anchor="end" x="0" y="0">性能优化</text><text xml:space="preserve" style="font: sans-serif 12px normal normal normal 12px;" fill="#747474" fill-opacity="1" stroke="none" transform="matrix(1,0,0,1,128.9366,348.65)" dominant-baseline="central" text-anchor="end" x="0" y="0">数据库</text><text xml:space="preserve" style="font: sans-serif 12px normal normal normal 12px;" fill="#747474" fill-opacity="1" stroke="none" transform="matrix(1,0,0,1,126.652,335.55)" dominant-baseline="central" text-anchor="end" x="0" y="0">数据结构算法</text><text xml:space="preserve" style="font: sans-serif 12px normal normal normal 12px;" fill="#747474" fill-opacity="1" stroke="none" transform="matrix(1,0,0,1,124.7301,322.45)" dominant-baseline="central" text-anchor="end" x="0" y="0">正则表达式</text><text xml:space="preserve" style="font: sans-serif 12px normal normal normal 12px;" fill="#747474" fill-opacity="1" stroke="none" transform="matrix(1,0,0,1,123.1521,309.35)" dominant-baseline="central" text-anchor="end" x="0" y="0">每日总结</text><text xml:space="preserve" style="font: sans-serif 12px normal normal normal 12px;" fill="#747474" fill-opacity="1" stroke="none" transform="matrix(1,0,0,1,121.9037,296.25)" dominant-baseline="central" text-anchor="end" x="0" y="0">浏览器API</text><text xml:space="preserve" style="font: sans-serif 12px normal normal normal 12px;" fill="#747474" fill-opacity="1" stroke="none" transform="matrix(1,0,0,1,120.974,283.15)" dominant-baseline="central" text-anchor="end" x="0" y="0">浏览器基础</text><text xml:space="preserve" style="font: sans-serif 12px normal normal normal 12px;" fill="#747474" fill-opacity="1" stroke="none" transform="matrix(1,0,0,1,120.3554,270.05)" dominant-baseline="central" text-anchor="end" x="0" y="0">练习</text><text xml:space="preserve" style="font: sans-serif 12px normal normal normal 12px;" fill="#747474" fill-opacity="1" stroke="none" transform="matrix(1,0,0,1,120.0426,256.95)" dominant-baseline="central" text-anchor="end" x="0" y="0">网络基础</text><text xml:space="preserve" style="font: sans-serif 12px normal normal normal 12px;" fill="#747474" fill-opacity="1" stroke="none" transform="matrix(1,0,0,1,120.0367,243.85)" dominant-baseline="central" text-anchor="end" x="0" y="0">随便写点儿？</text><text xml:space="preserve" style="font: sans-serif 12px normal normal normal 12px;" fill="#747474" fill-opacity="1" stroke="none" transform="matrix(1,0,0,1,120.3606,230.75)" dominant-baseline="central" text-anchor="end" x="0" y="0">qt图形库</text><text xml:space="preserve" style="font: sans-serif 12px normal normal normal 12px;" fill="#747474" fill-opacity="1" stroke="none" transform="matrix(1,0,0,1,121.0212,217.65)" dominant-baseline="central" text-anchor="end" x="0" y="0">canvas</text><text xml:space="preserve" style="font: sans-serif 12px normal normal normal 12px;" fill="#747474" fill-opacity="1" stroke="none" transform="matrix(1,0,0,1,122.0246,204.55)" dominant-baseline="central" text-anchor="end" x="0" y="0">es6</text><text xml:space="preserve" style="font: sans-serif 12px normal normal normal 12px;" fill="#747474" fill-opacity="1" stroke="none" transform="matrix(1,0,0,1,123.3799,191.45)" dominant-baseline="central" text-anchor="end" x="0" y="0">es7</text><text xml:space="preserve" style="font: sans-serif 12px normal normal normal 12px;" fill="#747474" fill-opacity="1" stroke="none" transform="matrix(1,0,0,1,125.1003,178.35)" dominant-baseline="central" text-anchor="end" x="0" y="0">reconciler实现</text><text xml:space="preserve" style="font: sans-serif 12px normal normal normal 12px;" fill="#747474" fill-opacity="1" stroke="none" transform="matrix(1,0,0,1,127.2031,165.25)" dominant-baseline="central" text-anchor="end" x="0" y="0">数据结构类型</text><text xml:space="preserve" style="font: sans-serif 12px normal normal normal 12px;" fill="#747474" fill-opacity="1" stroke="none" transform="matrix(1,0,0,1,129.7114,152.15)" dominant-baseline="central" text-anchor="end" x="0" y="0">浏览器API</text><text xml:space="preserve" style="font: sans-serif 12px normal normal normal 12px;" fill="#747474" fill-opacity="1" stroke="none" transform="matrix(1,0,0,1,132.6548,139.05)" dominant-baseline="central" text-anchor="end" x="0" y="0">实现一个基于IOC的H...</text><text xml:space="preserve" style="font: sans-serif 12px normal normal normal 12px;" fill="#747474" fill-opacity="1" stroke="none" transform="matrix(1,0,0,1,136.0723,125.95)" dominant-baseline="central" text-anchor="end" x="0" y="0">Iceworks篇</text><text xml:space="preserve" style="font: sans-serif 12px normal normal normal 12px;" fill="#747474" fill-opacity="1" stroke="none" transform="matrix(1,0,0,1,140.015,112.85)" dominant-baseline="central" text-anchor="end" x="0" y="0">docker</text><text xml:space="preserve" style="font: sans-serif 12px normal normal normal 12px;" fill="#747474" fill-opacity="1" stroke="none" transform="matrix(1,0,0,1,144.5515,99.75)" dominant-baseline="central" text-anchor="end" x="0" y="0">nginx</text><text xml:space="preserve" style="font: sans-serif 12px normal normal normal 12px;" fill="#747474" fill-opacity="1" stroke="none" transform="matrix(1,0,0,1,149.7766,86.65)" dominant-baseline="central" text-anchor="end" x="0" y="0">terser</text><text xml:space="preserve" style="font: sans-serif 12px normal normal normal 12px;" fill="#747474" fill-opacity="1" stroke="none" transform="matrix(1,0,0,1,155.8266,73.55)" dominant-baseline="central" text-anchor="end" x="0" y="0">webpack</text><text xml:space="preserve" style="font: sans-serif 12px normal normal normal 12px;" fill="#747474" fill-opacity="1" stroke="none" transform="matrix(1,0,0,1,162.9088,60.45)" dominant-baseline="central" text-anchor="end" x="0" y="0">包管理器</text><text xml:space="preserve" style="font: sans-serif 12px normal normal normal 12px;" fill="#747474" fill-opacity="1" stroke="none" transform="matrix(1,0,0,1,171.3669,47.35)" dominant-baseline="central" text-anchor="end" x="0" y="0">阿里oss</text><text xml:space="preserve" style="font: sans-serif 12px normal normal normal 12px;" fill="#747474" fill-opacity="1" stroke="none" transform="matrix(1,0,0,1,181.8538,34.25)" dominant-baseline="central" text-anchor="end" x="0" y="0">mongodb</text><text xml:space="preserve" style="font: sans-serif 12px normal normal normal 12px;" fill="#747474" fill-opacity="1" stroke="none" transform="matrix(1,0,0,1,195.9722,21.15)" dominant-baseline="central" text-anchor="end" x="0" y="0">hook</text><text xml:space="preserve" style="font: sans-serif 12px normal normal normal 12px;" fill="#747474" fill-opacity="1" stroke="none" transform="matrix(1,0,0,1,228.9343,7.05)" dominant-baseline="central" text-anchor="end" x="0" y="0">plugin</text><path d="M -31.5 -15 L 31.5 -15 L 31.5 15 L -31.5 15 L -31.5 -15" fill="rgba(0,0,0,0)" fill-opacity="1" stroke="#ccc" stroke-width="0" paint-order="fill" stroke-opacity="1" stroke-dasharray="" stroke-linecap="butt" stroke-miterlimit="10" transform="matrix(1,0,0,1,255,255)"></path><text xml:space="preserve" style="font: sans-serif 20px normal normal bold 20px;" fill="#747474" fill-opacity="1" stroke="none" transform="matrix(1,0,0,1,255,255)" dominant-baseline="central" text-anchor="middle" x="0" y="0">322篇</text></g></svg>